<?xml version="1.0" encoding="UTF-8"?>
<!DOCTYPE svg PUBLIC "-//W3C//DTD SVG 1.1//EN" "http://www.w3.org/Graphics/SVG/1.1/DTD/svg11.dtd">
<svg xmlns="http://www.w3.org/2000/svg" version="1.1" width="296px" height="296px" style="shape-rendering:geometricPrecision; text-rendering:geometricPrecision; image-rendering:optimizeQuality; fill-rule:evenodd; clip-rule:evenodd" xmlns:xlink="http://www.w3.org/1999/xlink">
<g><path style="opacity:1" fill="#042655" d="M 81.5,-0.5 C 111.833,-0.5 142.167,-0.5 172.5,-0.5C 175.15,0.246967 177.816,1.24697 180.5,2.5C 180.333,2.83333 180.167,3.16667 180,3.5C 178.667,2.83333 177.333,2.16667 176,1.5C 173.339,5.67679 174.506,7.84346 179.5,8C 177.089,9.58289 174.422,10.5829 171.5,11C 171.619,12.2812 171.119,13.4479 170,14.5C 169.15,13.5761 168.15,13.5761 167,14.5C 165.394,12.1159 163.227,10.9492 160.5,11C 159.542,12.1475 159.875,13.1475 161.5,14C 159.699,14.3173 159.366,14.984 160.5,16C 159.388,18.7785 157.555,20.9451 155,22.5C 154.572,17.502 153.739,17.3353 152.5,22C 154.657,23.0847 154.824,24.2513 153,25.5C 151.111,24.9106 149.111,24.5773 147,24.5C 146.333,25.1667 145.667,25.8333 145,26.5C 143.16,25.1669 142.66,25.3335 143.5,27C 142.464,28.6169 141.297,28.7836 140,27.5C 138.053,28.1097 136.219,28.9431 134.5,30C 136.993,31.5826 136.826,33.0826 134,34.5C 133.586,34.0426 133.086,33.7093 132.5,33.5C 131.571,34.6888 131.238,36.0222 131.5,37.5C 130.448,37.3505 129.448,37.5172 128.5,38C 129.654,38.9138 129.487,39.7471 128,40.5C 127.667,40.1667 127.333,39.8333 127,39.5C 125.663,41.0037 123.996,42.0037 122,42.5C 121.667,42.1667 121.333,41.8333 121,41.5C 121.148,42.825 120.982,43.9916 120.5,45C 117.851,45.4523 115.351,46.2857 113,47.5C 112.667,47.1667 112.333,46.8333 112,46.5C 110.691,47.8579 109.358,49.1913 108,50.5C 105.922,49.057 105.089,49.7237 105.5,52.5C 103.208,52.7564 101.041,52.4231 99,51.5C 98.5,52 98,52.5 97.5,53C 104.138,55.4438 103.971,57.2772 97,58.5C 96.5,58.3333 96,58.1667 95.5,58C 96.3279,57.0853 97.3279,56.4186 98.5,56C 96.4473,55.6753 94.4473,56.0087 92.5,57C 92.8333,57.3333 93.1667,57.6667 93.5,58C 91.8415,60.4819 89.5081,61.9819 86.5,62.5C 86.1667,61.8333 85.8333,61.1667 85.5,60.5C 83.5254,62.5852 82.1921,64.5852 81.5,66.5C 79.2985,64.9435 79.2985,63.7768 81.5,63C 78.8806,63.0833 76.214,63.25 73.5,63.5C 73.5,64.5 73.5,65.5 73.5,66.5C 70.3582,65.7853 67.3582,64.952 64.5,64C 64.3062,65.4299 64.3062,66.9299 64.5,68.5C 61.972,69.8159 61.972,70.9826 64.5,72C 63.6753,73.6883 62.6753,73.8549 61.5,72.5C 59.6628,76.2126 58.1628,76.2126 57,72.5C 55.418,73.9603 54.0847,75.627 53,77.5C 52.6667,76.8333 52.3333,76.1667 52,75.5C 51.7508,76.624 51.2508,77.624 50.5,78.5C 48.7392,76.3202 46.5726,74.6536 44,73.5C 41.2233,77.1378 38.5566,80.1378 36,82.5C 35.6667,81.8333 35.3333,81.1667 35,80.5C 34.3678,82.5313 33.2012,84.198 31.5,85.5C 30.011,85.5331 28.6776,86.0331 27.5,87C 27.8333,87.3333 28.1667,87.6667 28.5,88C 25.5,89 22.5,90 19.5,91C 20.3685,92.4646 19.8685,93.6313 18,94.5C 16.3542,92.8592 15.3542,93.1925 15,95.5C 12.9774,93.9873 13.1441,92.6539 15.5,91.5C 14.3717,90.7379 13.2051,90.0712 12,89.5C 7.16405,90.8797 2.99738,93.2131 -0.5,96.5C -0.5,85.8333 -0.5,75.1667 -0.5,64.5C 1.09719,63.9095 2.43052,62.9095 3.5,61.5C 5.15631,63.0224 6.32297,62.689 7,60.5C 7.92342,61.7588 8.75675,63.0921 9.5,64.5C 10.9378,61.1771 12.7711,60.8438 15,63.5C 15.9138,62.3463 16.7471,62.513 17.5,64C 17.1667,64.3333 16.8333,64.6667 16.5,65C 21.3461,66.8336 22.0127,66.1669 18.5,63C 20.8912,61.6914 20.8912,60.6914 18.5,60C 19.448,59.5172 20.448,59.3505 21.5,59.5C 21.1742,57.3393 20.1742,55.5059 18.5,54C 18.9302,53.0805 19.2635,52.2472 19.5,51.5C 21.9142,53.6469 23.4142,55.9802 24,58.5C 26.5946,57.7691 28.2613,56.1025 29,53.5C 29.8624,55.087 30.5291,56.7536 31,58.5C 32.9756,57.4567 33.4756,56.1233 32.5,54.5C 33.1667,54.1667 33.8333,53.8333 34.5,53.5C 40.4809,56.6401 41.4809,55.8068 37.5,51C 38.7839,50.3162 39.9505,50.4829 41,51.5C 42.9526,46.0931 45.4526,45.5931 48.5,50C 49.5,50.6667 50.5,50.6667 51.5,50C 51.2545,48.9399 51.2545,47.7732 51.5,46.5C 47.9555,45.153 47.7889,42.8196 51,39.5C 52.8477,42.4785 54.8477,42.8118 57,40.5C 57.3076,41.3081 57.8076,41.9747 58.5,42.5C 59.2421,40.8918 59.4087,39.2251 59,37.5C 59.7175,38.4506 60.5509,38.6172 61.5,38C 61.3808,36.7188 61.8808,35.5521 63,34.5C 65.3333,34.5 67.6667,34.5 70,34.5C 71.6994,29.9382 73.6994,29.6049 76,33.5C 77.9528,29.5782 79.1195,29.9115 79.5,34.5C 80.9778,34.762 82.3112,34.4287 83.5,33.5C 82.0977,32.1575 82.4311,31.3242 84.5,31C 82.0147,29.7773 81.848,28.2773 84,26.5C 85.1169,26.6651 86.2836,26.9984 87.5,27.5C 88.7739,25.15 90.1073,25.3167 91.5,28C 89.0881,30.0354 89.7548,31.0354 93.5,31C 94.1905,32.0674 94.6905,33.2341 95,34.5C 95.6368,32.6969 96.8035,31.3636 98.5,30.5C 97.6533,29.1552 96.4866,28.1552 95,27.5C 94.5774,28.9561 93.7441,29.4561 92.5,29C 93.8333,28.3333 93.8333,27.6667 92.5,27C 93.6226,25.9563 94.9559,25.2896 96.5,25C 95.5,24.1667 94.5,23.3333 93.5,22.5C 95.3362,21.2038 97.3362,20.3704 99.5,20C 99.1667,19.6667 98.8333,19.3333 98.5,19C 100.396,17.1917 100.896,15.025 100,12.5C 99.3975,15.9055 98.2308,16.2388 96.5,13.5C 97.2485,11.6675 98.2485,10.0009 99.5,8.5C 98.1663,8.47068 96.8329,7.63735 95.5,6C 96.1258,5.24956 96.6258,4.41623 97,3.5C 98.8402,4.83314 99.3402,4.66647 98.5,3C 95.6715,1.49139 92.8381,1.32472 90,2.5C 87.7011,0.464499 85.2011,0.131166 82.5,1.5C 81.7025,1.04311 81.3691,0.376442 81.5,-0.5 Z"/></g>
<g><path style="opacity:1" fill="#04224d" d="M 172.5,-0.5 C 196.167,-0.5 219.833,-0.5 243.5,-0.5C 247.341,0.100278 251.007,1.43361 254.5,3.5C 255.696,3.15431 255.696,2.65431 254.5,2C 256.944,1.60112 257.61,2.43446 256.5,4.5C 259.827,6.74695 259.827,8.24695 256.5,9C 257.205,10.5565 256.539,11.7232 254.5,12.5C 253.481,11.3128 252.314,10.3128 251,9.5C 250.544,10.7441 251.044,11.5774 252.5,12C 250.431,12.3242 250.098,13.1575 251.5,14.5C 249.741,15.754 248.241,15.4206 247,13.5C 243.28,14.7209 243.113,16.8876 246.5,20C 243.79,23.0936 242.79,22.5936 243.5,18.5C 240.67,15.5224 237.337,14.8558 233.5,16.5C 234.387,17.0786 235.554,17.0786 237,16.5C 238.607,16.7692 239.774,17.6026 240.5,19C 239.272,19.779 238.272,20.779 237.5,22C 238.148,23.4397 238.481,24.9397 238.5,26.5C 237.178,26.33 236.011,26.6634 235,27.5C 232.332,26.0196 232.165,24.5196 234.5,23C 234.167,22.8333 233.833,22.6667 233.5,22.5C 232.26,24.712 230.593,26.5453 228.5,28C 230.301,28.3173 230.634,28.984 229.5,30C 226.832,30.567 224.166,31.067 221.5,31.5C 221.649,32.552 221.483,33.552 221,34.5C 220.138,32.913 219.471,31.2464 219,29.5C 217.256,30.6492 217.089,31.9825 218.5,33.5C 217.975,34.1924 217.308,34.6924 216.5,35C 217.925,36.3619 218.758,37.8619 219,39.5C 218.586,39.0426 218.086,38.7093 217.5,38.5C 216.5,39.8333 215.5,41.1667 214.5,42.5C 213.895,41.4126 214.228,40.246 215.5,39C 214.5,38.3333 213.5,38.3333 212.5,39C 212.368,41.0467 212.535,43.2134 213,45.5C 212.667,45.1667 212.333,44.8333 212,44.5C 211,47.1667 210,47.1667 209,44.5C 208.29,45.9733 207.124,46.6399 205.5,46.5C 205.669,41.9593 205.002,41.626 203.5,45.5C 200.372,45.2446 197.205,44.2446 194,42.5C 193.5,42.6667 193,42.8333 192.5,43C 195.102,43.935 196.602,45.7683 197,48.5C 199.291,47.6894 201.125,48.5228 202.5,51C 201.789,52.2547 200.956,53.4214 200,54.5C 199.333,53.1667 198.333,52.1667 197,51.5C 195.57,51.6938 194.07,51.6938 192.5,51.5C 191.416,52.6651 190.583,53.9984 190,55.5C 189.333,54.1667 188.667,52.8333 188,51.5C 186.981,53.2694 186.814,54.9361 187.5,56.5C 186.372,57.2621 185.205,57.9288 184,58.5C 184,57.1667 184,55.8333 184,54.5C 182.33,54.3437 180.663,55.0104 179,56.5C 177.403,54.0394 175.57,53.8728 173.5,56C 175.929,56.4512 176.096,57.2845 174,58.5C 172.602,57.9491 171.268,57.6158 170,57.5C 168.815,59.3772 167.815,61.3772 167,63.5C 164.816,62.8919 162.816,63.5586 161,65.5C 158.966,63.4402 156.966,63.7735 155,66.5C 152.838,64.3531 150.504,64.3531 148,66.5C 145.246,64.9257 142.913,65.5924 141,68.5C 140.667,67.8333 140.333,67.1667 140,66.5C 137.853,68.4761 135.353,69.8094 132.5,70.5C 131.328,70.0814 130.328,69.4147 129.5,68.5C 129.089,69.2624 128.923,70.2624 129,71.5C 128.667,71.1667 128.333,70.8333 128,70.5C 126.564,73.8045 124.064,75.9712 120.5,77C 118.49,80.0623 116.157,82.0623 113.5,83C 112.526,85.0167 112.526,87.5167 113.5,90.5C 112.5,90.5 111.5,90.5 110.5,90.5C 110.388,95.593 109.555,95.593 108,90.5C 107.29,91.9733 106.124,92.6399 104.5,92.5C 104.439,95.0495 103.106,96.5495 100.5,97C 101.833,98 101.833,99 100.5,100C 101.5,100.333 102.5,100.667 103.5,101C 100.667,102.5 98.5,104.667 97,107.5C 93.6539,105.578 93.6539,104.911 97,105.5C 97.6667,104.5 97.6667,103.5 97,102.5C 96.6667,102.833 96.3333,103.167 96,103.5C 94.3333,102.5 93,101.167 92,99.5C 91,100.833 90,100.833 89,99.5C 88.3828,100.449 88.5494,101.282 89.5,102C 86.4557,102.359 86.1224,103.026 88.5,104C 88.0183,105.008 87.8516,106.175 88,107.5C 86.3264,105.991 84.6597,105.324 83,105.5C 84.6239,107.158 86.4572,108.991 88.5,111C 85.9974,112.549 85.9974,114.216 88.5,116C 86.3309,114.886 84.4976,115.386 83,117.5C 81.4878,116.743 80.1545,115.743 79,114.5C 78.414,118.676 79.5806,122.342 82.5,125.5C 82.2907,126.086 81.9574,126.586 81.5,127C 76.8742,126.247 72.2075,125.247 67.5,124C 69.7843,122.637 69.951,121.137 68,119.5C 67.6667,119.833 67.3333,120.167 67,120.5C 66.7811,119.062 66.2811,117.729 65.5,116.5C 65.4455,117.53 65.1122,118.697 64.5,120C 68.1311,121.963 67.7978,123.463 63.5,124.5C 63.1667,128.5 62.8333,128.5 62.5,124.5C 60.857,124.48 59.5237,125.147 58.5,126.5C 57.8076,125.975 57.3076,125.308 57,124.5C 55.5712,127.224 54.0712,129.891 52.5,132.5C 50.261,130.476 47.9277,130.642 45.5,133C 48.2764,134.779 47.9431,135.779 44.5,136C 44.8333,136.333 45.1667,136.667 45.5,137C 44.3379,137.827 43.1712,138.66 42,139.5C 39.7554,136.592 36.9221,134.425 33.5,133C 35.4054,132.174 35.7388,131.007 34.5,129.5C 33.5,130 32.5,130.5 31.5,131C 32.0563,133.237 33.0563,135.237 34.5,137C 34.1667,137.167 33.8333,137.333 33.5,137.5C 31.7346,135.358 29.2346,134.024 26,133.5C 25.3645,134.966 24.5312,136.3 23.5,137.5C 24.9023,138.842 24.5689,139.676 22.5,140C 23.8333,141 23.8333,142 22.5,143C 20.161,142.322 17.8276,141.655 15.5,141C 18.6146,143.352 19.448,146.186 18,149.5C 15.5612,148.138 15.0612,146.305 16.5,144C 15.2559,143.544 14.4226,144.044 14,145.5C 13.3161,143.641 12.3161,141.974 11,140.5C 10.6924,141.308 10.1924,141.975 9.5,142.5C 8.54896,141.674 7.54896,141.508 6.5,142C 5.16667,142.667 5.16667,143.333 6.5,144C 3.0674,144.036 0.734069,145.536 -0.5,148.5C -0.5,131.167 -0.5,113.833 -0.5,96.5C 2.99738,93.2131 7.16405,90.8797 12,89.5C 13.2051,90.0712 14.3717,90.7379 15.5,91.5C 13.1441,92.6539 12.9774,93.9873 15,95.5C 15.3542,93.1925 16.3542,92.8592 18,94.5C 19.8685,93.6313 20.3685,92.4646 19.5,91C 22.5,90 25.5,89 28.5,88C 28.1667,87.6667 27.8333,87.3333 27.5,87C 28.6776,86.0331 30.011,85.5331 31.5,85.5C 33.2012,84.198 34.3678,82.5313 35,80.5C 35.3333,81.1667 35.6667,81.8333 36,82.5C 38.5566,80.1378 41.2233,77.1378 44,73.5C 46.5726,74.6536 48.7392,76.3202 50.5,78.5C 51.2508,77.624 51.7508,76.624 52,75.5C 52.3333,76.1667 52.6667,76.8333 53,77.5C 54.0847,75.627 55.418,73.9603 57,72.5C 58.1628,76.2126 59.6628,76.2126 61.5,72.5C 62.6753,73.8549 63.6753,73.6883 64.5,72C 61.972,70.9826 61.972,69.8159 64.5,68.5C 64.3062,66.9299 64.3062,65.4299 64.5,64C 67.3582,64.952 70.3582,65.7853 73.5,66.5C 73.5,65.5 73.5,64.5 73.5,63.5C 76.214,63.25 78.8806,63.0833 81.5,63C 79.2985,63.7768 79.2985,64.9435 81.5,66.5C 82.1921,64.5852 83.5254,62.5852 85.5,60.5C 85.8333,61.1667 86.1667,61.8333 86.5,62.5C 89.5081,61.9819 91.8415,60.4819 93.5,58C 93.1667,57.6667 92.8333,57.3333 92.5,57C 94.4473,56.0087 96.4473,55.6753 98.5,56C 97.3279,56.4186 96.3279,57.0853 95.5,58C 96,58.1667 96.5,58.3333 97,58.5C 103.971,57.2772 104.138,55.4438 97.5,53C 98,52.5 98.5,52 99,51.5C 101.041,52.4231 103.208,52.7564 105.5,52.5C 105.089,49.7237 105.922,49.057 108,50.5C 109.358,49.1913 110.691,47.8579 112,46.5C 112.333,46.8333 112.667,47.1667 113,47.5C 115.351,46.2857 117.851,45.4523 120.5,45C 120.982,43.9916 121.148,42.825 121,41.5C 121.333,41.8333 121.667,42.1667 122,42.5C 123.996,42.0037 125.663,41.0037 127,39.5C 127.333,39.8333 127.667,40.1667 128,40.5C 129.487,39.7471 129.654,38.9138 128.5,38C 129.448,37.5172 130.448,37.3505 131.5,37.5C 131.238,36.0222 131.571,34.6888 132.5,33.5C 133.086,33.7093 133.586,34.0426 134,34.5C 136.826,33.0826 136.993,31.5826 134.5,30C 136.219,28.9431 138.053,28.1097 140,27.5C 141.297,28.7836 142.464,28.6169 143.5,27C 142.66,25.3335 143.16,25.1669 145,26.5C 145.667,25.8333 146.333,25.1667 147,24.5C 149.111,24.5773 151.111,24.9106 153,25.5C 154.824,24.2513 154.657,23.0847 152.5,22C 153.739,17.3353 154.572,17.502 155,22.5C 157.555,20.9451 159.388,18.7785 160.5,16C 159.366,14.984 159.699,14.3173 161.5,14C 159.875,13.1475 159.542,12.1475 160.5,11C 163.227,10.9492 165.394,12.1159 167,14.5C 168.15,13.5761 169.15,13.5761 170,14.5C 171.119,13.4479 171.619,12.2812 171.5,11C 174.422,10.5829 177.089,9.58289 179.5,8C 174.506,7.84346 173.339,5.67679 176,1.5C 177.333,2.16667 178.667,2.83333 180,3.5C 180.167,3.16667 180.333,2.83333 180.5,2.5C 177.816,1.24697 175.15,0.246967 172.5,-0.5 Z"/></g>
<g><path style="opacity:1" fill="#052047" d="M 243.5,-0.5 C 260.833,-0.5 278.167,-0.5 295.5,-0.5C 295.5,17.5 295.5,35.5 295.5,53.5C 294.835,55.3691 294.169,57.3691 293.5,59.5C 293.522,58.0048 293.189,56.3381 292.5,54.5C 291.914,54.7093 291.414,55.0426 291,55.5C 291.536,57.447 291.202,59.447 290,61.5C 289.781,60.062 289.281,58.7287 288.5,57.5C 286.618,59.6934 286.118,59.0267 287,55.5C 289.033,56.0164 289.033,55.3497 287,53.5C 285.025,54.478 283.358,55.8113 282,57.5C 280.433,56.1439 278.6,55.4772 276.5,55.5C 276.649,56.552 276.483,57.552 276,58.5C 274.836,58.8346 273.503,58.8346 272,58.5C 271.667,59.1667 271.333,59.8333 271,60.5C 269.796,59.5294 269.296,58.5294 269.5,57.5C 267.176,57.8773 266.509,58.8773 267.5,60.5C 266.478,61.354 265.645,62.354 265,63.5C 264.935,61.1167 264.102,60.45 262.5,61.5C 260.612,59.6794 258.279,59.5127 255.5,61C 257.5,61.6667 259.5,62.3333 261.5,63C 259.792,64.0623 259.126,65.229 259.5,66.5C 258.264,65.7542 256.93,65.4208 255.5,65.5C 255.649,66.552 255.483,67.552 255,68.5C 254.333,69.8333 253.667,69.8333 253,68.5C 252,72.1667 250.333,72.5 248,69.5C 247.517,68.552 247.351,67.552 247.5,66.5C 245.897,66.3118 244.563,66.8118 243.5,68C 244.051,69.3985 244.384,70.7318 244.5,72C 242.287,72.6256 240.12,72.4589 238,71.5C 236.739,71.7591 235.739,72.4258 235,73.5C 232.772,72.7007 231.439,73.7007 231,76.5C 230.717,73.2577 229.883,72.9244 228.5,75.5C 228.709,76.086 229.043,76.586 229.5,77C 227.273,77.121 225.44,77.9544 224,79.5C 223.316,78.2161 223.483,77.0495 224.5,76C 223.354,75.3551 222.354,74.5217 221.5,73.5C 220.289,74.8745 219.289,76.3745 218.5,78C 220.298,79.0934 221.132,80.5934 221,82.5C 218.667,82.1667 216.333,81.8333 214,81.5C 212.513,82.2529 212.346,83.0862 213.5,84C 212.216,84.6838 211.049,84.5171 210,83.5C 209.5,84 209,84.5 208.5,85C 209.841,88.2617 209.508,88.7617 207.5,86.5C 206.325,87.8549 205.325,87.6883 204.5,86C 205.167,85.6667 205.833,85.3333 206.5,85C 205.354,84.3551 204.354,83.5217 203.5,82.5C 200.352,83.1404 200.019,84.1404 202.5,85.5C 202.167,85.8333 201.833,86.1667 201.5,86.5C 200.232,85.5721 198.899,85.4054 197.5,86C 198.654,86.9138 198.487,87.7471 197,88.5C 196.395,86.5188 195.395,86.1854 194,87.5C 191.975,85.1207 189.475,84.2873 186.5,85C 187.851,86.6171 189.518,87.7838 191.5,88.5C 191.024,91.2012 190.024,91.7012 188.5,90C 188.833,89.6667 189.167,89.3333 189.5,89C 188.451,88.5078 187.451,88.6744 186.5,89.5C 186.687,88.1832 186.02,86.8499 184.5,85.5C 183.473,84.2086 182.473,84.2086 181.5,85.5C 180.956,83.4205 180.122,81.4205 179,79.5C 178.195,81.9011 177.362,81.7344 176.5,79C 174.448,77.1881 172.115,75.8548 169.5,75C 164.961,74.7471 160.461,74.2471 156,73.5C 155.235,73.5699 154.735,73.9033 154.5,74.5C 134.988,72.1722 120.488,79.5056 111,96.5C 108.435,101.891 106.935,107.558 106.5,113.5C 105.869,115.975 104.869,118.309 103.5,120.5C 103.719,119.325 103.386,118.325 102.5,117.5C 101.167,119.167 99.8333,120.833 98.5,122.5C 99.5709,124.325 98.9042,125.492 96.5,126C 97.6493,127.604 97.6493,129.27 96.5,131C 99.4036,133.077 99.0703,134.411 95.5,135C 97.1247,135.853 97.4581,136.853 96.5,138C 97.624,138.249 98.624,138.749 99.5,139.5C 98.3131,139.554 96.9798,139.887 95.5,140.5C 96.3333,142.167 97.1667,143.833 98,145.5C 98.6543,144.304 99.1543,144.304 99.5,145.5C 98.0921,146.243 96.7588,147.077 95.5,148C 95.8108,150.887 94.3108,153.72 91,156.5C 90.6667,156.167 90.3333,155.833 90,155.5C 87.7362,157.983 85.4028,157.983 83,155.5C 81.2729,155.646 81.1062,156.313 82.5,157.5C 82.1924,158.308 81.6924,158.975 81,159.5C 80,158.167 79,158.167 78,159.5C 77.6667,158.833 77.3333,158.167 77,157.5C 76.9152,159.085 76.7486,160.418 76.5,161.5C 74.9579,160.253 73.4579,160.253 72,161.5C 72.0658,156.805 70.5658,156.472 67.5,160.5C 71.9435,161.69 72.4435,163.69 69,166.5C 68,165.833 67,165.167 66,164.5C 64.9633,166.218 64.4633,168.051 64.5,170C 63.5509,170.617 62.7175,170.451 62,169.5C 61.5814,170.672 60.9147,171.672 60,172.5C 57.581,170.787 55.081,170.121 52.5,170.5C 49.6186,172.236 46.7852,173.236 44,173.5C 43.6667,172.5 43.3333,171.5 43,170.5C 39.6798,172.175 39.1798,174.175 41.5,176.5C 40.1667,177.5 40.1667,178.5 41.5,179.5C 40.635,180.583 39.635,180.749 38.5,180C 40.069,175.964 38.7356,173.131 34.5,171.5C 32.1056,172.725 29.7723,174.559 27.5,177C 30.2636,178.544 30.0969,179.711 27,180.5C 26.6667,179.5 26.3333,178.5 26,177.5C 24.6667,178.833 23.3333,180.167 22,181.5C 21.6667,178.833 21.3333,176.167 21,173.5C 20.5,174 20,174.5 19.5,175C 21.4102,179.142 20.5769,182.976 17,186.5C 16,185.167 15,185.167 14,186.5C 12.9805,185.313 11.8139,184.313 10.5,183.5C 10.0024,184.603 9.66906,185.603 9.5,186.5C 8.40156,185.385 7.2349,185.385 6,186.5C 4.73869,186.241 3.73869,185.574 3,184.5C 2.50999,185.793 2.34332,187.127 2.5,188.5C 1.5,188.5 0.5,188.5 -0.5,188.5C -0.5,175.167 -0.5,161.833 -0.5,148.5C 0.734069,145.536 3.0674,144.036 6.5,144C 5.16667,143.333 5.16667,142.667 6.5,142C 7.54896,141.508 8.54896,141.674 9.5,142.5C 10.1924,141.975 10.6924,141.308 11,140.5C 12.3161,141.974 13.3161,143.641 14,145.5C 14.4226,144.044 15.2559,143.544 16.5,144C 15.0612,146.305 15.5612,148.138 18,149.5C 19.448,146.186 18.6146,143.352 15.5,141C 17.8276,141.655 20.161,142.322 22.5,143C 23.8333,142 23.8333,141 22.5,140C 24.5689,139.676 24.9023,138.842 23.5,137.5C 24.5312,136.3 25.3645,134.966 26,133.5C 29.2346,134.024 31.7346,135.358 33.5,137.5C 33.8333,137.333 34.1667,137.167 34.5,137C 33.0563,135.237 32.0563,133.237 31.5,131C 32.5,130.5 33.5,130 34.5,129.5C 35.7388,131.007 35.4054,132.174 33.5,133C 36.9221,134.425 39.7554,136.592 42,139.5C 43.1712,138.66 44.3379,137.827 45.5,137C 45.1667,136.667 44.8333,136.333 44.5,136C 47.9431,135.779 48.2764,134.779 45.5,133C 47.9277,130.642 50.261,130.476 52.5,132.5C 54.0712,129.891 55.5712,127.224 57,124.5C 57.3076,125.308 57.8076,125.975 58.5,126.5C 59.5237,125.147 60.857,124.48 62.5,124.5C 62.8333,128.5 63.1667,128.5 63.5,124.5C 67.7978,123.463 68.1311,121.963 64.5,120C 65.1122,118.697 65.4455,117.53 65.5,116.5C 66.2811,117.729 66.7811,119.062 67,120.5C 67.3333,120.167 67.6667,119.833 68,119.5C 69.951,121.137 69.7843,122.637 67.5,124C 72.2075,125.247 76.8742,126.247 81.5,127C 81.9574,126.586 82.2907,126.086 82.5,125.5C 79.5806,122.342 78.414,118.676 79,114.5C 80.1545,115.743 81.4878,116.743 83,117.5C 84.4976,115.386 86.3309,114.886 88.5,116C 85.9974,114.216 85.9974,112.549 88.5,111C 86.4572,108.991 84.6239,107.158 83,105.5C 84.6597,105.324 86.3264,105.991 88,107.5C 87.8516,106.175 88.0183,105.008 88.5,104C 86.1224,103.026 86.4557,102.359 89.5,102C 88.5494,101.282 88.3828,100.449 89,99.5C 90,100.833 91,100.833 92,99.5C 93,101.167 94.3333,102.5 96,103.5C 96.3333,103.167 96.6667,102.833 97,102.5C 97.6667,103.5 97.6667,104.5 97,105.5C 93.6539,104.911 93.6539,105.578 97,107.5C 98.5,104.667 100.667,102.5 103.5,101C 102.5,100.667 101.5,100.333 100.5,100C 101.833,99 101.833,98 100.5,97C 103.106,96.5495 104.439,95.0495 104.5,92.5C 106.124,92.6399 107.29,91.9733 108,90.5C 109.555,95.593 110.388,95.593 110.5,90.5C 111.5,90.5 112.5,90.5 113.5,90.5C 112.526,87.5167 112.526,85.0167 113.5,83C 116.157,82.0623 118.49,80.0623 120.5,77C 124.064,75.9712 126.564,73.8045 128,70.5C 128.333,70.8333 128.667,71.1667 129,71.5C 128.923,70.2624 129.089,69.2624 129.5,68.5C 130.328,69.4147 131.328,70.0814 132.5,70.5C 135.353,69.8094 137.853,68.4761 140,66.5C 140.333,67.1667 140.667,67.8333 141,68.5C 142.913,65.5924 145.246,64.9257 148,66.5C 150.504,64.3531 152.838,64.3531 155,66.5C 156.966,63.7735 158.966,63.4402 161,65.5C 162.816,63.5586 164.816,62.8919 167,63.5C 167.815,61.3772 168.815,59.3772 170,57.5C 171.268,57.6158 172.602,57.9491 174,58.5C 176.096,57.2845 175.929,56.4512 173.5,56C 175.57,53.8728 177.403,54.0394 179,56.5C 180.663,55.0104 182.33,54.3437 184,54.5C 184,55.8333 184,57.1667 184,58.5C 185.205,57.9288 186.372,57.2621 187.5,56.5C 186.814,54.9361 186.981,53.2694 188,51.5C 188.667,52.8333 189.333,54.1667 190,55.5C 190.583,53.9984 191.416,52.6651 192.5,51.5C 194.07,51.6938 195.57,51.6938 197,51.5C 198.333,52.1667 199.333,53.1667 200,54.5C 200.956,53.4214 201.789,52.2547 202.5,51C 201.125,48.5228 199.291,47.6894 197,48.5C 196.602,45.7683 195.102,43.935 192.5,43C 193,42.8333 193.5,42.6667 194,42.5C 197.205,44.2446 200.372,45.2446 203.5,45.5C 205.002,41.626 205.669,41.9593 205.5,46.5C 207.124,46.6399 208.29,45.9733 209,44.5C 210,47.1667 211,47.1667 212,44.5C 212.333,44.8333 212.667,45.1667 213,45.5C 212.535,43.2134 212.368,41.0467 212.5,39C 213.5,38.3333 214.5,38.3333 215.5,39C 214.228,40.246 213.895,41.4126 214.5,42.5C 215.5,41.1667 216.5,39.8333 217.5,38.5C 218.086,38.7093 218.586,39.0426 219,39.5C 218.758,37.8619 217.925,36.3619 216.5,35C 217.308,34.6924 217.975,34.1924 218.5,33.5C 217.089,31.9825 217.256,30.6492 219,29.5C 219.471,31.2464 220.138,32.913 221,34.5C 221.483,33.552 221.649,32.552 221.5,31.5C 224.166,31.067 226.832,30.567 229.5,30C 230.634,28.984 230.301,28.3173 228.5,28C 230.593,26.5453 232.26,24.712 233.5,22.5C 233.833,22.6667 234.167,22.8333 234.5,23C 232.165,24.5196 232.332,26.0196 235,27.5C 236.011,26.6634 237.178,26.33 238.5,26.5C 238.481,24.9397 238.148,23.4397 237.5,22C 238.272,20.779 239.272,19.779 240.5,19C 239.774,17.6026 238.607,16.7692 237,16.5C 235.554,17.0786 234.387,17.0786 233.5,16.5C 237.337,14.8558 240.67,15.5224 243.5,18.5C 242.79,22.5936 243.79,23.0936 246.5,20C 243.113,16.8876 243.28,14.7209 247,13.5C 248.241,15.4206 249.741,15.754 251.5,14.5C 250.098,13.1575 250.431,12.3242 252.5,12C 251.044,11.5774 250.544,10.7441 251,9.5C 252.314,10.3128 253.481,11.3128 254.5,12.5C 256.539,11.7232 257.205,10.5565 256.5,9C 259.827,8.24695 259.827,6.74695 256.5,4.5C 257.61,2.43446 256.944,1.60112 254.5,2C 255.696,2.65431 255.696,3.15431 254.5,3.5C 251.007,1.43361 247.341,0.100278 243.5,-0.5 Z"/></g>
<g><path style="opacity:1" fill="#062859" d="M -0.5,-0.5 C 26.8333,-0.5 54.1667,-0.5 81.5,-0.5C 81.3691,0.376442 81.7025,1.04311 82.5,1.5C 85.2011,0.131166 87.7011,0.464499 90,2.5C 92.8381,1.32472 95.6715,1.49139 98.5,3C 99.3402,4.66647 98.8402,4.83314 97,3.5C 96.6258,4.41623 96.1258,5.24956 95.5,6C 96.8329,7.63735 98.1663,8.47068 99.5,8.5C 98.2485,10.0009 97.2485,11.6675 96.5,13.5C 98.2308,16.2388 99.3975,15.9055 100,12.5C 100.896,15.025 100.396,17.1917 98.5,19C 98.8333,19.3333 99.1667,19.6667 99.5,20C 97.3362,20.3704 95.3362,21.2038 93.5,22.5C 94.5,23.3333 95.5,24.1667 96.5,25C 94.9559,25.2896 93.6226,25.9563 92.5,27C 93.8333,27.6667 93.8333,28.3333 92.5,29C 93.7441,29.4561 94.5774,28.9561 95,27.5C 96.4866,28.1552 97.6533,29.1552 98.5,30.5C 96.8035,31.3636 95.6368,32.6969 95,34.5C 94.6905,33.2341 94.1905,32.0674 93.5,31C 89.7548,31.0354 89.0881,30.0354 91.5,28C 90.1073,25.3167 88.7739,25.15 87.5,27.5C 86.2836,26.9984 85.1169,26.6651 84,26.5C 81.848,28.2773 82.0147,29.7773 84.5,31C 82.4311,31.3242 82.0977,32.1575 83.5,33.5C 82.3112,34.4287 80.9778,34.762 79.5,34.5C 79.1195,29.9115 77.9528,29.5782 76,33.5C 73.6994,29.6049 71.6994,29.9382 70,34.5C 67.6667,34.5 65.3333,34.5 63,34.5C 61.8808,35.5521 61.3808,36.7188 61.5,38C 60.5509,38.6172 59.7175,38.4506 59,37.5C 59.4087,39.2251 59.2421,40.8918 58.5,42.5C 57.8076,41.9747 57.3076,41.3081 57,40.5C 54.8477,42.8118 52.8477,42.4785 51,39.5C 47.7889,42.8196 47.9555,45.153 51.5,46.5C 51.2545,47.7732 51.2545,48.9399 51.5,50C 50.5,50.6667 49.5,50.6667 48.5,50C 45.4526,45.5931 42.9526,46.0931 41,51.5C 39.9505,50.4829 38.7839,50.3162 37.5,51C 41.4809,55.8068 40.4809,56.6401 34.5,53.5C 33.8333,53.8333 33.1667,54.1667 32.5,54.5C 33.4756,56.1233 32.9756,57.4567 31,58.5C 30.5291,56.7536 29.8624,55.087 29,53.5C 28.2613,56.1025 26.5946,57.7691 24,58.5C 23.4142,55.9802 21.9142,53.6469 19.5,51.5C 19.2635,52.2472 18.9302,53.0805 18.5,54C 20.1742,55.5059 21.1742,57.3393 21.5,59.5C 20.448,59.3505 19.448,59.5172 18.5,60C 20.8912,60.6914 20.8912,61.6914 18.5,63C 22.0127,66.1669 21.3461,66.8336 16.5,65C 16.8333,64.6667 17.1667,64.3333 17.5,64C 16.7471,62.513 15.9138,62.3463 15,63.5C 12.7711,60.8438 10.9378,61.1771 9.5,64.5C 8.75675,63.0921 7.92342,61.7588 7,60.5C 6.32297,62.689 5.15631,63.0224 3.5,61.5C 2.43052,62.9095 1.09719,63.9095 -0.5,64.5C -0.5,42.8333 -0.5,21.1667 -0.5,-0.5 Z"/></g>
<g><path style="opacity:1" fill="#041d41" d="M 295.5,53.5 C 295.5,62.1667 295.5,70.8333 295.5,79.5C 294.145,82.4302 293.645,85.4302 294,88.5C 292.333,87.8333 290.667,87.1667 289,86.5C 287.442,87.3452 286.442,86.6785 286,84.5C 284.853,85.4581 283.853,85.1247 283,83.5C 282.667,84.5 282.333,85.5 282,86.5C 281.333,85.1667 280.667,85.1667 280,86.5C 279.585,84.7091 278.585,83.3757 277,82.5C 276.815,85.3462 274.982,87.3462 271.5,88.5C 270.833,88.1667 270.167,87.8333 269.5,87.5C 269.167,88.1667 268.833,88.8333 268.5,89.5C 267.914,89.2907 267.414,88.9574 267,88.5C 266.751,91.1768 265.751,93.5101 264,95.5C 263.085,94.6721 262.419,93.6721 262,92.5C 260.829,94.6157 259.329,95.2824 257.5,94.5C 256.522,94.9767 255.689,95.6433 255,96.5C 254.692,95.6919 254.192,95.0253 253.5,94.5C 252.575,95.6405 251.741,95.6405 251,94.5C 248.05,98.4527 246.216,98.4527 245.5,94.5C 243.885,95.154 242.218,95.654 240.5,96C 239.166,98.6604 238.332,101.494 238,104.5C 236.575,103.788 235.075,103.621 233.5,104C 234.654,103.086 234.487,102.253 233,101.5C 231.89,103.397 231.724,105.23 232.5,107C 231.778,109.741 230.112,110.741 227.5,110C 228.956,109.577 229.456,108.744 229,107.5C 226.833,109 224.667,110.5 222.5,112C 222.833,112.333 223.167,112.667 223.5,113C 222.299,113.903 221.465,115.069 221,116.5C 220.667,115.833 220.333,115.167 220,114.5C 218.992,114.982 217.825,115.148 216.5,115C 217.524,116.367 217.024,117.2 215,117.5C 214.228,117.355 213.561,117.022 213,116.5C 213,117.833 213,119.167 213,120.5C 211.921,118.606 210.587,118.273 209,119.5C 207.676,117.5 206.009,115.833 204,114.5C 203.997,117.716 202.831,120.383 200.5,122.5C 198.519,121.895 198.185,120.895 199.5,119.5C 197.441,118.049 196.441,116.049 196.5,113.5C 195.178,113.33 194.011,113.663 193,114.5C 192.383,113.551 192.549,112.718 193.5,112C 190.833,111.333 190.833,110.667 193.5,110C 186.767,103.184 182.767,95.0176 181.5,85.5C 182.473,84.2086 183.473,84.2086 184.5,85.5C 186.02,86.8499 186.687,88.1832 186.5,89.5C 187.451,88.6744 188.451,88.5078 189.5,89C 189.167,89.3333 188.833,89.6667 188.5,90C 190.024,91.7012 191.024,91.2012 191.5,88.5C 189.518,87.7838 187.851,86.6171 186.5,85C 189.475,84.2873 191.975,85.1207 194,87.5C 195.395,86.1854 196.395,86.5188 197,88.5C 198.487,87.7471 198.654,86.9138 197.5,86C 198.899,85.4054 200.232,85.5721 201.5,86.5C 201.833,86.1667 202.167,85.8333 202.5,85.5C 200.019,84.1404 200.352,83.1404 203.5,82.5C 204.354,83.5217 205.354,84.3551 206.5,85C 205.833,85.3333 205.167,85.6667 204.5,86C 205.325,87.6883 206.325,87.8549 207.5,86.5C 209.508,88.7617 209.841,88.2617 208.5,85C 209,84.5 209.5,84 210,83.5C 211.049,84.5171 212.216,84.6838 213.5,84C 212.346,83.0862 212.513,82.2529 214,81.5C 216.333,81.8333 218.667,82.1667 221,82.5C 221.132,80.5934 220.298,79.0934 218.5,78C 219.289,76.3745 220.289,74.8745 221.5,73.5C 222.354,74.5217 223.354,75.3551 224.5,76C 223.483,77.0495 223.316,78.2161 224,79.5C 225.44,77.9544 227.273,77.121 229.5,77C 229.043,76.586 228.709,76.086 228.5,75.5C 229.883,72.9244 230.717,73.2577 231,76.5C 231.439,73.7007 232.772,72.7007 235,73.5C 235.739,72.4258 236.739,71.7591 238,71.5C 240.12,72.4589 242.287,72.6256 244.5,72C 244.384,70.7318 244.051,69.3985 243.5,68C 244.563,66.8118 245.897,66.3118 247.5,66.5C 247.351,67.552 247.517,68.552 248,69.5C 250.333,72.5 252,72.1667 253,68.5C 253.667,69.8333 254.333,69.8333 255,68.5C 255.483,67.552 255.649,66.552 255.5,65.5C 256.93,65.4208 258.264,65.7542 259.5,66.5C 259.126,65.229 259.792,64.0623 261.5,63C 259.5,62.3333 257.5,61.6667 255.5,61C 258.279,59.5127 260.612,59.6794 262.5,61.5C 264.102,60.45 264.935,61.1167 265,63.5C 265.645,62.354 266.478,61.354 267.5,60.5C 266.509,58.8773 267.176,57.8773 269.5,57.5C 269.296,58.5294 269.796,59.5294 271,60.5C 271.333,59.8333 271.667,59.1667 272,58.5C 273.503,58.8346 274.836,58.8346 276,58.5C 276.483,57.552 276.649,56.552 276.5,55.5C 278.6,55.4772 280.433,56.1439 282,57.5C 283.358,55.8113 285.025,54.478 287,53.5C 289.033,55.3497 289.033,56.0164 287,55.5C 286.118,59.0267 286.618,59.6934 288.5,57.5C 289.281,58.7287 289.781,60.062 290,61.5C 291.202,59.447 291.536,57.447 291,55.5C 291.414,55.0426 291.914,54.7093 292.5,54.5C 293.189,56.3381 293.522,58.0048 293.5,59.5C 294.169,57.3691 294.835,55.3691 295.5,53.5 Z"/></g>
<g><path style="opacity:1" fill="#eeeeef" d="M 154.5,74.5 C 168.131,78.2936 177.964,86.6269 184,99.5C 185.995,109.796 187.495,120.129 188.5,130.5C 189.661,136.122 187.995,140.455 183.5,143.5C 182.504,143.586 181.671,143.252 181,142.5C 180.333,134.5 180.333,126.5 181,118.5C 182.908,117.182 183.742,115.348 183.5,113C 183.407,106.578 181.574,100.744 178,95.5C 176.53,94.7334 175.03,94.0668 173.5,93.5C 158.579,80.7159 142.579,79.2159 125.5,89C 123.604,91.068 121.604,92.9013 119.5,94.5C 118.022,94.238 116.689,94.5713 115.5,95.5C 111.695,102.317 110.029,109.651 110.5,117.5C 111.5,117.5 112.5,117.5 113.5,117.5C 113.666,125.507 113.5,133.507 113,141.5C 112.583,142.756 111.75,143.423 110.5,143.5C 108.164,141.996 106.331,139.996 105,137.5C 104.178,129.313 104.678,121.313 106.5,113.5C 106.935,107.558 108.435,101.891 111,96.5C 120.488,79.5056 134.988,72.1722 154.5,74.5 Z"/></g>
<g><path style="opacity:1" fill="#051a3b" d="M 181.5,85.5 C 182.767,95.0176 186.767,103.184 193.5,110C 190.833,110.667 190.833,111.333 193.5,112C 192.549,112.718 192.383,113.551 193,114.5C 194.011,113.663 195.178,113.33 196.5,113.5C 196.441,116.049 197.441,118.049 199.5,119.5C 198.185,120.895 198.519,121.895 200.5,122.5C 202.831,120.383 203.997,117.716 204,114.5C 206.009,115.833 207.676,117.5 209,119.5C 210.587,118.273 211.921,118.606 213,120.5C 213,119.167 213,117.833 213,116.5C 213.561,117.022 214.228,117.355 215,117.5C 217.024,117.2 217.524,116.367 216.5,115C 217.825,115.148 218.992,114.982 220,114.5C 220.333,115.167 220.667,115.833 221,116.5C 221.465,115.069 222.299,113.903 223.5,113C 223.167,112.667 222.833,112.333 222.5,112C 224.667,110.5 226.833,109 229,107.5C 229.456,108.744 228.956,109.577 227.5,110C 230.112,110.741 231.778,109.741 232.5,107C 231.724,105.23 231.89,103.397 233,101.5C 234.487,102.253 234.654,103.086 233.5,104C 235.075,103.621 236.575,103.788 238,104.5C 238.332,101.494 239.166,98.6604 240.5,96C 242.218,95.654 243.885,95.154 245.5,94.5C 246.216,98.4527 248.05,98.4527 251,94.5C 251.741,95.6405 252.575,95.6405 253.5,94.5C 254.192,95.0253 254.692,95.6919 255,96.5C 255.689,95.6433 256.522,94.9767 257.5,94.5C 259.329,95.2824 260.829,94.6157 262,92.5C 262.419,93.6721 263.085,94.6721 264,95.5C 265.751,93.5101 266.751,91.1768 267,88.5C 267.414,88.9574 267.914,89.2907 268.5,89.5C 268.833,88.8333 269.167,88.1667 269.5,87.5C 270.167,87.8333 270.833,88.1667 271.5,88.5C 274.982,87.3462 276.815,85.3462 277,82.5C 278.585,83.3757 279.585,84.7091 280,86.5C 280.667,85.1667 281.333,85.1667 282,86.5C 282.333,85.5 282.667,84.5 283,83.5C 283.853,85.1247 284.853,85.4581 286,84.5C 286.442,86.6785 287.442,87.3452 289,86.5C 290.667,87.1667 292.333,87.8333 294,88.5C 293.645,85.4302 294.145,82.4302 295.5,79.5C 295.5,93.8333 295.5,108.167 295.5,122.5C 293.795,121.465 292.128,121.465 290.5,122.5C 288.714,120.979 286.881,120.646 285,121.5C 282.067,117.392 279.9,117.726 278.5,122.5C 276.61,122.703 275.11,122.037 274,120.5C 273.667,121.167 273.333,121.833 273,122.5C 271.883,121.051 271.216,119.384 271,117.5C 270.309,119.891 269.309,119.891 268,117.5C 266.283,118.988 265.116,120.821 264.5,123C 262.905,122.383 261.572,122.716 260.5,124C 262.158,124.725 262.658,125.892 262,127.5C 261.333,124.833 260.667,124.833 260,127.5C 259.044,126.421 258.211,125.255 257.5,124C 256.668,123.312 256.002,123.479 255.5,124.5C 256.5,125.833 257.5,127.167 258.5,128.5C 256.971,129.284 255.304,130.284 253.5,131.5C 254.855,132.675 254.688,133.675 253,134.5C 252.3,132.968 251.134,131.968 249.5,131.5C 249.522,132.995 249.189,134.662 248.5,136.5C 245.848,132.613 243.848,132.779 242.5,137C 240.064,136.947 237.731,137.113 235.5,137.5C 234.167,139.5 232.833,141.5 231.5,143.5C 232.609,144.965 232.109,145.965 230,146.5C 229.667,145.833 229.333,145.167 229,144.5C 228.333,145.833 227.667,147.167 227,148.5C 226.692,147.692 226.192,147.025 225.5,146.5C 225.331,147.397 224.998,148.397 224.5,149.5C 223.914,149.291 223.414,148.957 223,148.5C 223,150.5 223,152.5 223,154.5C 220.391,152.019 218.224,152.519 216.5,156C 216.944,157.762 217.444,157.595 218,155.5C 218.418,160.161 217.418,164.495 215,168.5C 214.333,167.833 213.667,167.167 213,166.5C 211.817,167.731 210.651,167.731 209.5,166.5C 210.025,165.808 210.692,165.308 211.5,165C 210.069,164.535 208.903,163.701 208,162.5C 208.035,166.245 207.035,166.912 205,164.5C 204.383,165.449 204.549,166.282 205.5,167C 205,167.167 204.5,167.333 204,167.5C 200.857,166.358 197.69,166.358 194.5,167.5C 192.245,165.209 190.078,165.209 188,167.5C 186.112,165.078 184.112,165.078 182,167.5C 181.167,166.5 180.333,165.5 179.5,164.5C 176.623,165.343 174.456,167.01 173,169.5C 167.451,168.058 163.618,170.058 161.5,175.5C 161.846,176.696 162.346,176.696 163,175.5C 163.5,176.5 164,177.5 164.5,178.5C 164.154,179.696 163.654,179.696 163,178.5C 162.345,180.628 161.511,182.628 160.5,184.5C 159.732,183.737 159.232,182.737 159,181.5C 158.25,182.126 157.416,182.626 156.5,183C 156.833,183.333 157.167,183.667 157.5,184C 155.866,184.494 154.199,184.66 152.5,184.5C 152.741,181.001 151.908,180.668 150,183.5C 147.868,182.22 145.702,182.22 143.5,183.5C 141.605,181.368 139.438,181.034 137,182.5C 136.055,182.095 135.388,181.428 135,180.5C 134.692,181.308 134.192,181.975 133.5,182.5C 132.5,181.167 131.5,181.167 130.5,182.5C 127.876,181.453 127.042,179.787 128,177.5C 127.162,176.001 126.329,175.668 125.5,176.5C 125.167,176.5 124.833,176.5 124.5,176.5C 124.389,175.883 124.056,175.383 123.5,175C 120.304,174.195 117.304,174.362 114.5,175.5C 112.888,178.744 111.888,182.411 111.5,186.5C 110.692,186.808 110.025,187.308 109.5,188C 91.9941,181.31 83.3275,187.477 83.5,206.5C 82.4415,205.4 81.6082,204.066 81,202.5C 79.2857,194.932 78.2857,187.265 78,179.5C 77.6174,178.944 77.1174,178.611 76.5,178.5C 78.2905,177.609 80.1239,176.609 82,175.5C 82.4828,176.448 82.6495,177.448 82.5,178.5C 83.8221,178.67 84.9887,178.337 86,177.5C 86.6172,178.449 86.4506,179.282 85.5,180C 87.3506,180.837 89.1839,181.671 91,182.5C 92.6995,181.594 94.5328,181.261 96.5,181.5C 96.5,180.5 96.5,179.5 96.5,178.5C 97.552,178.649 98.552,178.483 99.5,178C 98.2986,177.097 97.4652,175.931 97,174.5C 96.0862,175.654 95.2529,175.487 94.5,174C 95.8333,173 95.8333,172 94.5,171C 95,170.5 95.5,170 96,169.5C 97.3333,170.833 98.6667,170.833 100,169.5C 100.333,170.167 100.667,170.833 101,171.5C 102.512,170.743 103.846,169.743 105,168.5C 105.333,168.833 105.667,169.167 106,169.5C 106.507,168.004 106.007,166.837 104.5,166C 105.634,164.984 105.301,164.317 103.5,164C 104.167,163.667 104.833,163.333 105.5,163C 103.484,162.101 101.817,160.767 100.5,159C 101.549,158.508 102.549,158.674 103.5,159.5C 104.428,157.665 105.594,157.332 107,158.5C 107.483,157.552 107.649,156.552 107.5,155.5C 110.131,155.034 112.298,154.367 114,153.5C 114.688,152.668 114.521,152.002 113.5,151.5C 112.604,152.506 111.938,152.506 111.5,151.5C 112.025,150.808 112.692,150.308 113.5,150C 112.663,148.989 112.33,147.822 112.5,146.5C 110.362,146.703 108.695,147.703 107.5,149.5C 106.713,148.758 106.047,147.925 105.5,147C 106.38,145.644 106.714,144.144 106.5,142.5C 102.609,141.431 100.609,138.764 100.5,134.5C 101.655,130.046 102.655,125.379 103.5,120.5C 104.869,118.309 105.869,115.975 106.5,113.5C 104.678,121.313 104.178,129.313 105,137.5C 106.331,139.996 108.164,141.996 110.5,143.5C 111.926,144.341 113.26,145.341 114.5,146.5C 118.064,147.423 121.731,147.756 125.5,147.5C 128.344,148.172 130.844,149.505 133,151.5C 133.667,150.833 134.333,150.167 135,149.5C 137.624,151.699 140.458,152.032 143.5,150.5C 148.802,150.881 153.802,149.881 158.5,147.5C 160.017,147.511 161.184,148.177 162,149.5C 163.726,148.424 165.559,148.257 167.5,149C 172.498,153.68 177.165,153.18 181.5,147.5C 182.18,146.14 182.847,144.807 183.5,143.5C 187.995,140.455 189.661,136.122 188.5,130.5C 187.495,120.129 185.995,109.796 184,99.5C 177.964,86.6269 168.131,78.2936 154.5,74.5C 154.735,73.9033 155.235,73.5699 156,73.5C 160.461,74.2471 164.961,74.7471 169.5,75C 172.115,75.8548 174.448,77.1881 176.5,79C 177.362,81.7344 178.195,81.9011 179,79.5C 180.122,81.4205 180.956,83.4205 181.5,85.5 Z"/></g>
<g><path style="opacity:1" fill="#0a2041" d="M 173.5,93.5 C 173.5,94.8333 173.5,96.1667 173.5,97.5C 175.143,97.4802 176.476,98.1468 177.5,99.5C 179.102,104.041 178.268,108.041 175,111.5C 172.266,111.234 169.599,111.234 167,111.5C 166.721,113.12 165.888,114.453 164.5,115.5C 157.044,107.511 148.044,105.344 137.5,109C 134.335,111.335 131.335,113.835 128.5,116.5C 127.316,115.312 127.316,114.145 128.5,113C 127.095,111.731 125.429,111.231 123.5,111.5C 119.833,111.5 116.167,111.5 112.5,111.5C 112.8,106.583 113.966,101.916 116,97.5C 116.667,96.1667 117.333,96.1667 118,97.5C 118.513,96.4734 119.013,95.4734 119.5,94.5C 121.604,92.9013 123.604,91.068 125.5,89C 142.579,79.2159 158.579,80.7159 173.5,93.5 Z"/></g>
<g><path style="opacity:1" fill="#2b2e3f" d="M 119.5,94.5 C 119.013,95.4734 118.513,96.4734 118,97.5C 117.333,96.1667 116.667,96.1667 116,97.5C 113.966,101.916 112.8,106.583 112.5,111.5C 116.167,111.5 119.833,111.5 123.5,111.5C 123.737,112.791 123.404,113.791 122.5,114.5C 120.365,112.631 117.698,111.964 114.5,112.5C 114.5,123.833 114.5,135.167 114.5,146.5C 113.26,145.341 111.926,144.341 110.5,143.5C 111.75,143.423 112.583,142.756 113,141.5C 113.5,133.507 113.666,125.507 113.5,117.5C 112.5,117.5 111.5,117.5 110.5,117.5C 110.029,109.651 111.695,102.317 115.5,95.5C 116.689,94.5713 118.022,94.238 119.5,94.5 Z"/></g>
<g><path style="opacity:1" fill="#fbfbfb" d="M 164.5,115.5 C 167.924,120.271 169.257,125.605 168.5,131.5C 167.642,135.548 165.975,139.215 163.5,142.5C 162.027,144.395 160.36,146.061 158.5,147.5C 153.802,149.881 148.802,150.881 143.5,150.5C 126.57,144.628 121.57,133.295 128.5,116.5C 131.335,113.835 134.335,111.335 137.5,109C 148.044,105.344 157.044,107.511 164.5,115.5 Z"/></g>
<g><path style="opacity:1" fill="#ededee" d="M 169.5,147.5 C 171.579,143.672 173.412,139.672 175,135.5C 175.817,129.984 175.651,124.65 174.5,119.5C 173.833,117.167 173.167,114.833 172.5,112.5C 174.792,112.244 176.959,112.577 179,113.5C 179.667,124.5 179.667,135.5 179,146.5C 175.943,147.451 172.777,147.784 169.5,147.5 Z"/></g>
<g><path style="opacity:1" fill="#f3f3f3" d="M 122.5,114.5 C 119.574,120.811 118.741,127.477 120,134.5C 121.306,139.106 123.14,143.439 125.5,147.5C 121.731,147.756 118.064,147.423 114.5,146.5C 114.5,135.167 114.5,123.833 114.5,112.5C 117.698,111.964 120.365,112.631 122.5,114.5 Z"/></g>
<g><path style="opacity:1" fill="#131c31" d="M 173.5,93.5 C 175.03,94.0668 176.53,94.7334 178,95.5C 181.574,100.744 183.407,106.578 183.5,113C 183.742,115.348 182.908,117.182 181,118.5C 180.333,126.5 180.333,134.5 181,142.5C 181.671,143.252 182.504,143.586 183.5,143.5C 182.847,144.807 182.18,146.14 181.5,147.5C 177.165,153.18 172.498,153.68 167.5,149C 165.559,148.257 163.726,148.424 162,149.5C 161.184,148.177 160.017,147.511 158.5,147.5C 160.36,146.061 162.027,144.395 163.5,142.5C 164.496,142.586 165.329,142.252 166,141.5C 166.876,143.758 168.043,145.758 169.5,147.5C 172.777,147.784 175.943,147.451 179,146.5C 179.667,135.5 179.667,124.5 179,113.5C 176.959,112.577 174.792,112.244 172.5,112.5C 173.167,114.833 173.833,117.167 174.5,119.5C 173.931,122.335 172.264,124.001 169.5,124.5C 169.802,127.059 169.468,129.393 168.5,131.5C 169.257,125.605 167.924,120.271 164.5,115.5C 165.888,114.453 166.721,113.12 167,111.5C 169.599,111.234 172.266,111.234 175,111.5C 178.268,108.041 179.102,104.041 177.5,99.5C 176.476,98.1468 175.143,97.4802 173.5,97.5C 173.5,96.1667 173.5,94.8333 173.5,93.5 Z"/></g>
<g><path style="opacity:1" fill="#0f1830" d="M 123.5,111.5 C 125.429,111.231 127.095,111.731 128.5,113C 127.316,114.145 127.316,115.312 128.5,116.5C 121.57,133.295 126.57,144.628 143.5,150.5C 140.458,152.032 137.624,151.699 135,149.5C 134.333,150.167 133.667,150.833 133,151.5C 130.844,149.505 128.344,148.172 125.5,147.5C 123.14,143.439 121.306,139.106 120,134.5C 118.741,127.477 119.574,120.811 122.5,114.5C 123.404,113.791 123.737,112.791 123.5,111.5 Z"/></g>
<g><path style="opacity:1" fill="#041734" d="M 295.5,122.5 C 295.5,135.167 295.5,147.833 295.5,160.5C 294.25,160.577 293.417,161.244 293,162.5C 292.667,164.5 292.333,166.5 292,168.5C 288.952,167.217 288.785,165.551 291.5,163.5C 289.976,161.142 287.976,159.309 285.5,158C 286.747,156.506 286.747,155.006 285.5,153.5C 285.795,154.826 285.295,156.159 284,157.5C 283.5,156.333 282.667,155.5 281.5,155C 282.554,153.612 282.72,152.112 282,150.5C 280.592,153.112 279.258,155.779 278,158.5C 277.667,158.167 277.333,157.833 277,157.5C 275.595,159.107 273.928,160.44 272,161.5C 270.422,160.453 268.922,160.453 267.5,161.5C 268.694,164.795 267.361,166.295 263.5,166C 263.619,167.281 263.119,168.448 262,169.5C 261.667,168.833 261.333,168.167 261,167.5C 260.5,169.333 259.333,170.5 257.5,171C 257.957,171.414 258.291,171.914 258.5,172.5C 257.092,173.243 255.759,174.077 254.5,175C 255.5,175.333 256.5,175.667 257.5,176C 256.069,176.465 254.903,177.299 254,178.5C 253.798,176.744 253.298,175.078 252.5,173.5C 251.749,174.376 251.249,175.376 251,176.5C 250.667,176.167 250.333,175.833 250,175.5C 248.451,178.003 246.784,178.003 245,175.5C 244.71,177.044 244.044,178.377 243,179.5C 241.853,178.542 240.853,178.875 240,180.5C 239.667,179.833 239.333,179.167 239,178.5C 238.418,181.668 237.418,182.001 236,179.5C 235.692,180.308 235.192,180.975 234.5,181.5C 233.205,180.902 231.872,180.402 230.5,180C 231.451,179.282 231.617,178.449 231,177.5C 229.667,176.167 228.333,174.833 227,173.5C 226.751,174.624 226.251,175.624 225.5,176.5C 224.41,175.609 224.41,174.609 225.5,173.5C 219.126,171.607 213.292,172.607 208,176.5C 205.08,176.125 202.247,175.792 199.5,175.5C 199.714,173.856 199.38,172.356 198.5,171C 194.959,169.745 191.459,169.578 188,170.5C 187.333,169.833 186.667,169.167 186,168.5C 180.612,170.7 175.112,172.7 169.5,174.5C 168.618,177.791 167.952,181.124 167.5,184.5C 165.167,184.5 162.833,184.5 160.5,184.5C 161.511,182.628 162.345,180.628 163,178.5C 163.654,179.696 164.154,179.696 164.5,178.5C 164,177.5 163.5,176.5 163,175.5C 162.346,176.696 161.846,176.696 161.5,175.5C 163.618,170.058 167.451,168.058 173,169.5C 174.456,167.01 176.623,165.343 179.5,164.5C 180.333,165.5 181.167,166.5 182,167.5C 184.112,165.078 186.112,165.078 188,167.5C 190.078,165.209 192.245,165.209 194.5,167.5C 197.69,166.358 200.857,166.358 204,167.5C 204.5,167.333 205,167.167 205.5,167C 204.549,166.282 204.383,165.449 205,164.5C 207.035,166.912 208.035,166.245 208,162.5C 208.903,163.701 210.069,164.535 211.5,165C 210.692,165.308 210.025,165.808 209.5,166.5C 210.651,167.731 211.817,167.731 213,166.5C 213.667,167.167 214.333,167.833 215,168.5C 217.418,164.495 218.418,160.161 218,155.5C 217.444,157.595 216.944,157.762 216.5,156C 218.224,152.519 220.391,152.019 223,154.5C 223,152.5 223,150.5 223,148.5C 223.414,148.957 223.914,149.291 224.5,149.5C 224.998,148.397 225.331,147.397 225.5,146.5C 226.192,147.025 226.692,147.692 227,148.5C 227.667,147.167 228.333,145.833 229,144.5C 229.333,145.167 229.667,145.833 230,146.5C 232.109,145.965 232.609,144.965 231.5,143.5C 232.833,141.5 234.167,139.5 235.5,137.5C 237.731,137.113 240.064,136.947 242.5,137C 243.848,132.779 245.848,132.613 248.5,136.5C 249.189,134.662 249.522,132.995 249.5,131.5C 251.134,131.968 252.3,132.968 253,134.5C 254.688,133.675 254.855,132.675 253.5,131.5C 255.304,130.284 256.971,129.284 258.5,128.5C 257.5,127.167 256.5,125.833 255.5,124.5C 256.002,123.479 256.668,123.312 257.5,124C 258.211,125.255 259.044,126.421 260,127.5C 260.667,124.833 261.333,124.833 262,127.5C 262.658,125.892 262.158,124.725 260.5,124C 261.572,122.716 262.905,122.383 264.5,123C 265.116,120.821 266.283,118.988 268,117.5C 269.309,119.891 270.309,119.891 271,117.5C 271.216,119.384 271.883,121.051 273,122.5C 273.333,121.833 273.667,121.167 274,120.5C 275.11,122.037 276.61,122.703 278.5,122.5C 279.9,117.726 282.067,117.392 285,121.5C 286.881,120.646 288.714,120.979 290.5,122.5C 292.128,121.465 293.795,121.465 295.5,122.5 Z"/></g>
<g><path style="opacity:1" fill="#0d101b" d="M 174.5,119.5 C 175.651,124.65 175.817,129.984 175,135.5C 173.412,139.672 171.579,143.672 169.5,147.5C 168.043,145.758 166.876,143.758 166,141.5C 165.329,142.252 164.496,142.586 163.5,142.5C 165.975,139.215 167.642,135.548 168.5,131.5C 169.468,129.393 169.802,127.059 169.5,124.5C 172.264,124.001 173.931,122.335 174.5,119.5 Z"/></g>
<g><path style="opacity:1" fill="#06152e" d="M 295.5,160.5 C 295.5,170.5 295.5,180.5 295.5,190.5C 293.771,191.117 292.271,192.117 291,193.5C 288.88,191.348 286.38,189.848 283.5,189C 286.365,186.597 286.199,185.764 283,186.5C 281.333,185.167 279.667,183.833 278,182.5C 275.656,185.261 272.822,187.428 269.5,189C 270.517,190.049 270.684,191.216 270,192.5C 268.757,191.664 267.59,191.997 266.5,193.5C 267.563,195.366 266.896,195.866 264.5,195C 264.833,194 265.167,193 265.5,192C 264.5,191.333 263.5,191.333 262.5,192C 263.451,192.718 263.617,193.551 263,194.5C 261.989,193.663 260.822,193.33 259.5,193.5C 259.154,189.174 257.988,185.84 256,183.5C 255.626,184.416 255.126,185.25 254.5,186C 248.163,185.97 241.996,186.803 236,188.5C 234.862,188.011 233.695,187.678 232.5,187.5C 232.167,187.5 231.833,187.5 231.5,187.5C 231.213,185.879 230.213,184.879 228.5,184.5C 226.484,185.706 224.484,185.706 222.5,184.5C 223.309,182.929 223.643,181.262 223.5,179.5C 223.714,177.856 223.38,176.356 222.5,175C 213.276,173.396 208.276,177.23 207.5,186.5C 205.901,186.232 204.568,186.566 203.5,187.5C 203.167,187.5 202.833,187.5 202.5,187.5C 202.493,184.962 202.159,182.462 201.5,180C 201.285,178.092 200.285,176.926 198.5,176.5C 198.063,174.926 197.063,173.759 195.5,173C 186.882,171.116 183.215,174.616 184.5,183.5C 183.596,182.791 183.263,181.791 183.5,180.5C 182.5,180.5 181.5,180.5 180.5,180.5C 180.5,187.5 180.5,194.5 180.5,201.5C 179.304,192.652 179.304,183.652 180.5,174.5C 177.167,174.5 173.833,174.5 170.5,174.5C 171.422,179.472 171.588,184.472 171,189.5C 164.909,186.105 159.742,187.105 155.5,192.5C 153.545,191.07 151.879,191.403 150.5,193.5C 147.945,190.73 144.945,188.73 141.5,187.5C 142.239,187.631 142.906,187.464 143.5,187C 138.831,185.495 134.164,185.162 129.5,186C 127.485,183.135 126.152,179.968 125.5,176.5C 126.329,175.668 127.162,176.001 128,177.5C 127.042,179.787 127.876,181.453 130.5,182.5C 131.5,181.167 132.5,181.167 133.5,182.5C 134.192,181.975 134.692,181.308 135,180.5C 135.388,181.428 136.055,182.095 137,182.5C 139.438,181.034 141.605,181.368 143.5,183.5C 145.702,182.22 147.868,182.22 150,183.5C 151.908,180.668 152.741,181.001 152.5,184.5C 154.199,184.66 155.866,184.494 157.5,184C 157.167,183.667 156.833,183.333 156.5,183C 157.416,182.626 158.25,182.126 159,181.5C 159.232,182.737 159.732,183.737 160.5,184.5C 162.833,184.5 165.167,184.5 167.5,184.5C 167.952,181.124 168.618,177.791 169.5,174.5C 175.112,172.7 180.612,170.7 186,168.5C 186.667,169.167 187.333,169.833 188,170.5C 191.459,169.578 194.959,169.745 198.5,171C 199.38,172.356 199.714,173.856 199.5,175.5C 202.247,175.792 205.08,176.125 208,176.5C 213.292,172.607 219.126,171.607 225.5,173.5C 224.41,174.609 224.41,175.609 225.5,176.5C 226.251,175.624 226.751,174.624 227,173.5C 228.333,174.833 229.667,176.167 231,177.5C 231.617,178.449 231.451,179.282 230.5,180C 231.872,180.402 233.205,180.902 234.5,181.5C 235.192,180.975 235.692,180.308 236,179.5C 237.418,182.001 238.418,181.668 239,178.5C 239.333,179.167 239.667,179.833 240,180.5C 240.853,178.875 241.853,178.542 243,179.5C 244.044,178.377 244.71,177.044 245,175.5C 246.784,178.003 248.451,178.003 250,175.5C 250.333,175.833 250.667,176.167 251,176.5C 251.249,175.376 251.749,174.376 252.5,173.5C 253.298,175.078 253.798,176.744 254,178.5C 254.903,177.299 256.069,176.465 257.5,176C 256.5,175.667 255.5,175.333 254.5,175C 255.759,174.077 257.092,173.243 258.5,172.5C 258.291,171.914 257.957,171.414 257.5,171C 259.333,170.5 260.5,169.333 261,167.5C 261.333,168.167 261.667,168.833 262,169.5C 263.119,168.448 263.619,167.281 263.5,166C 267.361,166.295 268.694,164.795 267.5,161.5C 268.922,160.453 270.422,160.453 272,161.5C 273.928,160.44 275.595,159.107 277,157.5C 277.333,157.833 277.667,158.167 278,158.5C 279.258,155.779 280.592,153.112 282,150.5C 282.72,152.112 282.554,153.612 281.5,155C 282.667,155.5 283.5,156.333 284,157.5C 285.295,156.159 285.795,154.826 285.5,153.5C 286.747,155.006 286.747,156.506 285.5,158C 287.976,159.309 289.976,161.142 291.5,163.5C 288.785,165.551 288.952,167.217 292,168.5C 292.333,166.5 292.667,164.5 293,162.5C 293.417,161.244 294.25,160.577 295.5,160.5 Z"/></g>
<g><path style="opacity:1" fill="#051d41" d="M 103.5,120.5 C 102.655,125.379 101.655,130.046 100.5,134.5C 100.609,138.764 102.609,141.431 106.5,142.5C 106.714,144.144 106.38,145.644 105.5,147C 106.047,147.925 106.713,148.758 107.5,149.5C 108.695,147.703 110.362,146.703 112.5,146.5C 112.33,147.822 112.663,148.989 113.5,150C 112.692,150.308 112.025,150.808 111.5,151.5C 111.938,152.506 112.604,152.506 113.5,151.5C 114.521,152.002 114.688,152.668 114,153.5C 112.298,154.367 110.131,155.034 107.5,155.5C 107.649,156.552 107.483,157.552 107,158.5C 105.594,157.332 104.428,157.665 103.5,159.5C 102.549,158.674 101.549,158.508 100.5,159C 101.817,160.767 103.484,162.101 105.5,163C 104.833,163.333 104.167,163.667 103.5,164C 105.301,164.317 105.634,164.984 104.5,166C 106.007,166.837 106.507,168.004 106,169.5C 105.667,169.167 105.333,168.833 105,168.5C 103.846,169.743 102.512,170.743 101,171.5C 100.667,170.833 100.333,170.167 100,169.5C 98.6667,170.833 97.3333,170.833 96,169.5C 95.5,170 95,170.5 94.5,171C 95.8333,172 95.8333,173 94.5,174C 95.2529,175.487 96.0862,175.654 97,174.5C 97.4652,175.931 98.2986,177.097 99.5,178C 98.552,178.483 97.552,178.649 96.5,178.5C 96.5,179.5 96.5,180.5 96.5,181.5C 94.5328,181.261 92.6995,181.594 91,182.5C 89.1839,181.671 87.3506,180.837 85.5,180C 86.4506,179.282 86.6172,178.449 86,177.5C 84.9887,178.337 83.8221,178.67 82.5,178.5C 82.6495,177.448 82.4828,176.448 82,175.5C 80.1239,176.609 78.2905,177.609 76.5,178.5C 73.4816,178.335 70.4816,178.502 67.5,179C 66.8828,181.277 66.2161,183.444 65.5,185.5C 65.6567,184.127 65.49,182.793 65,181.5C 64.6667,181.833 64.3333,182.167 64,182.5C 62.951,180.893 61.451,180.227 59.5,180.5C 59.3893,179.883 59.056,179.383 58.5,179C 55.1667,178.333 51.8333,178.333 48.5,179C 47.9011,180.622 47.2344,182.122 46.5,183.5C 46.762,182.022 46.4287,180.689 45.5,179.5C 44.6143,180.325 44.281,181.325 44.5,182.5C 43.5,182.5 42.5,182.5 41.5,182.5C 40.8617,184.46 40.8617,186.293 41.5,188C 40.8333,189.333 39.8333,190.333 38.5,191C 39.3452,192.558 38.6785,193.558 36.5,194C 37.1667,194.333 37.8333,194.667 38.5,195C 35.2363,197.057 34.5696,199.39 36.5,202C 35.552,202.483 34.552,202.649 33.5,202.5C 33.3184,204.591 33.6518,206.591 34.5,208.5C 33.2839,209.096 31.9506,209.263 30.5,209C 32.8118,211.152 32.4785,213.152 29.5,215C 27.6199,214.49 25.7866,214.657 24,215.5C 23.3333,214.833 22.6667,214.167 22,213.5C 21,215.167 19.6667,216.5 18,217.5C 17.6667,216.5 17.3333,215.5 17,214.5C 15.2041,215.767 13.3707,215.767 11.5,214.5C 10.9202,215.574 11.4202,216.574 13,217.5C 13.9138,216.346 14.7471,216.513 15.5,218C 13.8876,218.72 12.3876,218.554 11,217.5C 9.35372,219.597 7.35372,221.264 5,222.5C 5,221.167 5,219.833 5,218.5C 3.73649,220.607 1.90315,221.607 -0.5,221.5C -0.5,210.5 -0.5,199.5 -0.5,188.5C 0.5,188.5 1.5,188.5 2.5,188.5C 2.34332,187.127 2.50999,185.793 3,184.5C 3.73869,185.574 4.73869,186.241 6,186.5C 7.2349,185.385 8.40156,185.385 9.5,186.5C 9.66906,185.603 10.0024,184.603 10.5,183.5C 11.8139,184.313 12.9805,185.313 14,186.5C 15,185.167 16,185.167 17,186.5C 20.5769,182.976 21.4102,179.142 19.5,175C 20,174.5 20.5,174 21,173.5C 21.3333,176.167 21.6667,178.833 22,181.5C 23.3333,180.167 24.6667,178.833 26,177.5C 26.3333,178.5 26.6667,179.5 27,180.5C 30.0969,179.711 30.2636,178.544 27.5,177C 29.7723,174.559 32.1056,172.725 34.5,171.5C 38.7356,173.131 40.069,175.964 38.5,180C 39.635,180.749 40.635,180.583 41.5,179.5C 40.1667,178.5 40.1667,177.5 41.5,176.5C 39.1798,174.175 39.6798,172.175 43,170.5C 43.3333,171.5 43.6667,172.5 44,173.5C 46.7852,173.236 49.6186,172.236 52.5,170.5C 55.081,170.121 57.581,170.787 60,172.5C 60.9147,171.672 61.5814,170.672 62,169.5C 62.7175,170.451 63.5509,170.617 64.5,170C 64.4633,168.051 64.9633,166.218 66,164.5C 67,165.167 68,165.833 69,166.5C 72.4435,163.69 71.9435,161.69 67.5,160.5C 70.5658,156.472 72.0658,156.805 72,161.5C 73.4579,160.253 74.9579,160.253 76.5,161.5C 76.7486,160.418 76.9152,159.085 77,157.5C 77.3333,158.167 77.6667,158.833 78,159.5C 79,158.167 80,158.167 81,159.5C 81.6924,158.975 82.1924,158.308 82.5,157.5C 81.1062,156.313 81.2729,155.646 83,155.5C 85.4028,157.983 87.7362,157.983 90,155.5C 90.3333,155.833 90.6667,156.167 91,156.5C 94.3108,153.72 95.8108,150.887 95.5,148C 96.7588,147.077 98.0921,146.243 99.5,145.5C 99.1543,144.304 98.6543,144.304 98,145.5C 97.1667,143.833 96.3333,142.167 95.5,140.5C 96.9798,139.887 98.3131,139.554 99.5,139.5C 98.624,138.749 97.624,138.249 96.5,138C 97.4581,136.853 97.1247,135.853 95.5,135C 99.0703,134.411 99.4036,133.077 96.5,131C 97.6493,129.27 97.6493,127.604 96.5,126C 98.9042,125.492 99.5709,124.325 98.5,122.5C 99.8333,120.833 101.167,119.167 102.5,117.5C 103.386,118.325 103.719,119.325 103.5,120.5 Z"/></g>
<g><path style="opacity:1" fill="#b9bec1" d="M 198.5,176.5 C 198.833,179.167 199.167,181.833 199.5,184.5C 198.5,184.5 197.5,184.5 196.5,184.5C 198.919,175.682 195.919,172.682 187.5,175.5C 185.827,177.761 186.16,179.428 188.5,180.5C 188.167,181.833 187.833,183.167 187.5,184.5C 186.209,184.737 185.209,184.404 184.5,183.5C 183.215,174.616 186.882,171.116 195.5,173C 197.063,173.759 198.063,174.926 198.5,176.5 Z"/></g>
<g><path style="opacity:1" fill="#f2f2f2" d="M 124.5,176.5 C 123.24,187.837 123.24,199.17 124.5,210.5C 121.167,210.5 117.833,210.5 114.5,210.5C 115.668,198.828 115.668,187.161 114.5,175.5C 117.304,174.362 120.304,174.195 123.5,175C 124.056,175.383 124.389,175.883 124.5,176.5 Z"/></g>
<g><path style="opacity:1" fill="#f3f3f4" d="M 180.5,201.5 C 180.5,204.5 180.5,207.5 180.5,210.5C 175.108,209.968 169.774,209.968 164.5,210.5C 155.792,208.78 152.292,203.447 154,194.5C 154.717,193.956 155.217,193.289 155.5,192.5C 159.742,187.105 164.909,186.105 171,189.5C 171.588,184.472 171.422,179.472 170.5,174.5C 173.833,174.5 177.167,174.5 180.5,174.5C 179.304,183.652 179.304,192.652 180.5,201.5 Z"/></g>
<g><path style="opacity:1" fill="#f1f2f1" d="M 223.5,179.5 C 221.845,180.93 219.845,181.764 217.5,182C 215.963,183.11 215.297,184.61 215.5,186.5C 217.5,186.5 219.5,186.5 221.5,186.5C 221.575,189.206 221.908,191.873 222.5,194.5C 220.167,194.5 217.833,194.5 215.5,194.5C 215.777,199.886 216.444,205.219 217.5,210.5C 213.958,210.813 210.625,210.479 207.5,209.5C 207.5,204.833 207.5,200.167 207.5,195.5C 206.432,194.566 205.099,194.232 203.5,194.5C 203.5,192.167 203.5,189.833 203.5,187.5C 204.568,186.566 205.901,186.232 207.5,186.5C 208.276,177.23 213.276,173.396 222.5,175C 223.38,176.356 223.714,177.856 223.5,179.5 Z"/></g>
<g><path style="opacity:1" fill="#f1f1f1" d="M 59.5,180.5 C 59.2702,185.25 60.4369,189.584 63,193.5C 63.9406,190.846 64.7739,188.179 65.5,185.5C 66.2161,183.444 66.8828,181.277 67.5,179C 70.4816,178.502 73.4816,178.335 76.5,178.5C 77.1174,178.611 77.6174,178.944 78,179.5C 78.2857,187.265 79.2857,194.932 81,202.5C 81.6082,204.066 82.4415,205.4 83.5,206.5C 83.5,207.833 83.5,209.167 83.5,210.5C 79.5,210.5 75.5,210.5 71.5,210.5C 71.8282,205.125 71.4948,199.792 70.5,194.5C 67.8029,199.894 65.1363,205.227 62.5,210.5C 61.5,208.5 60.5,206.5 59.5,204.5C 58.1049,200.71 56.4383,197.043 54.5,193.5C 53.8332,199.319 53.1665,204.986 52.5,210.5C 49.1667,210.5 45.8333,210.5 42.5,210.5C 44.578,201.621 45.9113,192.621 46.5,183.5C 47.2344,182.122 47.9011,180.622 48.5,179C 51.8333,178.333 55.1667,178.333 58.5,179C 59.056,179.383 59.3893,179.883 59.5,180.5 Z"/></g>
<g><path style="opacity:1" fill="#0f1223" d="M 59.5,180.5 C 61.451,180.227 62.951,180.893 64,182.5C 64.3333,182.167 64.6667,181.833 65,181.5C 65.49,182.793 65.6567,184.127 65.5,185.5C 64.7739,188.179 63.9406,190.846 63,193.5C 60.4369,189.584 59.2702,185.25 59.5,180.5 Z"/></g>
<g><path style="opacity:1" fill="#f5f5f5" d="M 141.5,187.5 C 144.945,188.73 147.945,190.73 150.5,193.5C 151.833,197.5 151.833,201.5 150.5,205.5C 147.076,209.377 142.743,211.377 137.5,211.5C 127.255,210.337 123.422,204.671 126,194.5C 129.568,188.802 134.735,186.469 141.5,187.5 Z"/></g>
<g><path style="opacity:1" fill="#8a8d92" d="M 202.5,187.5 C 202.833,187.5 203.167,187.5 203.5,187.5C 203.5,189.833 203.5,192.167 203.5,194.5C 205.099,194.232 206.432,194.566 207.5,195.5C 205.833,195.5 204.167,195.5 202.5,195.5C 202.5,192.833 202.5,190.167 202.5,187.5 Z"/></g>
<g><path style="opacity:1" fill="#efefef" d="M 231.5,187.5 C 231.833,187.5 232.167,187.5 232.5,187.5C 234.055,191.011 235.889,194.345 238,197.5C 239.645,194.378 241.145,191.212 242.5,188C 245.817,187.502 249.15,187.335 252.5,187.5C 249.29,194.922 245.79,202.255 242,209.5C 240.326,213.021 239.16,216.687 238.5,220.5C 234.5,220.5 230.5,220.5 226.5,220.5C 229.445,216.369 231.778,211.869 233.5,207C 230.849,201.004 227.349,195.504 223,190.5C 222.517,189.552 222.351,188.552 222.5,187.5C 225.5,187.5 228.5,187.5 231.5,187.5 Z"/></g>
<g><path style="opacity:1" fill="#171722" d="M 135.5,194.5 C 141.989,194.156 143.989,196.99 141.5,203C 133.749,204.091 131.749,201.258 135.5,194.5 Z"/></g>
<g><path style="opacity:1" fill="#0e0f18" d="M 198.5,176.5 C 200.285,176.926 201.285,178.092 201.5,180C 202.159,182.462 202.493,184.962 202.5,187.5C 202.5,190.167 202.5,192.833 202.5,195.5C 204.167,195.5 205.833,195.5 207.5,195.5C 207.5,200.167 207.5,204.833 207.5,209.5C 203.427,202.996 200.427,203.663 198.5,211.5C 189.113,211.193 179.78,211.527 170.5,212.5C 166.555,211.732 162.555,211.232 158.5,211C 156.919,210.293 155.419,209.46 154,208.5C 151.679,209.361 150.513,208.361 150.5,205.5C 151.833,201.5 151.833,197.5 150.5,193.5C 151.879,191.403 153.545,191.07 155.5,192.5C 155.217,193.289 154.717,193.956 154,194.5C 152.292,203.447 155.792,208.78 164.5,210.5C 169.774,209.968 175.108,209.968 180.5,210.5C 180.5,207.5 180.5,204.5 180.5,201.5C 180.5,194.5 180.5,187.5 180.5,180.5C 181.5,180.5 182.5,180.5 183.5,180.5C 183.263,181.791 183.596,182.791 184.5,183.5C 185.209,184.404 186.209,184.737 187.5,184.5C 190.096,185.265 192.763,185.599 195.5,185.5C 195.808,183.076 195.474,180.743 194.5,178.5C 191.495,176.741 189.495,177.408 188.5,180.5C 186.16,179.428 185.827,177.761 187.5,175.5C 195.919,172.682 198.919,175.682 196.5,184.5C 197.5,184.5 198.5,184.5 199.5,184.5C 199.167,181.833 198.833,179.167 198.5,176.5 Z"/></g>
<g><path style="opacity:1" fill="#14141e" d="M 164.5,194.5 C 170.982,194.736 172.648,197.569 169.5,203C 162.416,203.475 160.749,200.642 164.5,194.5 Z"/></g>
<g><path style="opacity:1" fill="#f4f4f5" d="M 186.5,188.5 C 189.833,188.5 193.167,188.5 196.5,188.5C 195.167,195.833 195.167,203.167 196.5,210.5C 193.167,210.5 189.833,210.5 186.5,210.5C 187.702,203.175 187.702,195.841 186.5,188.5 Z"/></g>
<g><path style="opacity:1" fill="#e9e8e8" d="M 187.5,184.5 C 187.833,183.167 188.167,181.833 188.5,180.5C 189.495,177.408 191.495,176.741 194.5,178.5C 195.474,180.743 195.808,183.076 195.5,185.5C 192.763,185.599 190.096,185.265 187.5,184.5 Z"/></g>
<g><path style="opacity:1" fill="#020f23" d="M 295.5,190.5 C 295.5,211.167 295.5,231.833 295.5,252.5C 294.185,256.392 292.852,260.392 291.5,264.5C 290.808,263.975 290.308,263.308 290,262.5C 289.492,264.904 288.325,265.571 286.5,264.5C 288.946,263.017 288.612,261.851 285.5,261C 286.672,259.132 286.505,257.298 285,255.5C 282.581,257.85 280.248,260.184 278,262.5C 277.667,261.833 277.333,261.167 277,260.5C 274.565,262.437 274.398,264.27 276.5,266C 273.753,266.112 271.253,265.946 269,265.5C 266.832,266.629 266.332,268.129 267.5,270C 266.333,271.167 265.167,272.333 264,273.5C 263.577,272.044 262.744,271.544 261.5,272C 260.167,272.667 260.167,273.333 261.5,274C 260.551,274.617 259.718,274.451 259,273.5C 258.683,275.301 258.016,275.634 257,274.5C 254.358,278.389 250.858,280.556 246.5,281C 247.696,280.346 247.696,279.846 246.5,279.5C 245.719,280.729 245.219,282.062 245,283.5C 244.333,280.833 243.667,280.833 243,283.5C 241.915,282.707 240.748,282.04 239.5,281.5C 237.677,282.747 235.677,283.414 233.5,283.5C 233.5,284.5 233.5,285.5 233.5,286.5C 229.17,285.732 225.837,287.065 223.5,290.5C 223.667,290.833 223.833,291.167 224,291.5C 226.409,288.833 227.576,288.999 227.5,292C 226.409,293.55 225.076,294.717 223.5,295.5C 193.167,295.5 162.833,295.5 132.5,295.5C 133.542,293.209 135.042,292.209 137,292.5C 137.837,290.649 138.671,288.816 139.5,287C 142.095,286.774 144.595,286.274 147,285.5C 147.414,285.957 147.914,286.291 148.5,286.5C 150.149,285.352 151.649,284.019 153,282.5C 154.049,283.517 155.216,283.684 156.5,283C 154.326,281.736 154.66,280.569 157.5,279.5C 159.029,279.529 160.196,280.196 161,281.5C 162.576,282.013 163.909,281.346 165,279.5C 166.892,279.777 168.225,280.777 169,282.5C 169.956,281.421 170.789,280.255 171.5,279C 172.825,279.148 173.992,278.982 175,278.5C 175.689,274.708 177.856,272.708 181.5,272.5C 181.5,271.5 181.5,270.5 181.5,269.5C 183.39,269.297 184.89,269.963 186,271.5C 187.697,270.636 188.863,269.303 189.5,267.5C 188.503,265.189 188.003,262.856 188,260.5C 190.04,264.446 192.04,264.446 194,260.5C 194.308,261.308 194.808,261.975 195.5,262.5C 197.618,261.054 199.951,260.387 202.5,260.5C 202.132,257.944 202.966,255.944 205,254.5C 205.546,255.289 206.213,256.289 207,257.5C 207.333,256.833 207.667,256.167 208,255.5C 208.419,256.672 209.085,257.672 210,258.5C 210.862,256.913 211.529,255.246 212,253.5C 213.61,253.87 215.11,253.203 216.5,251.5C 216.291,250.914 215.957,250.414 215.5,250C 216.744,249.544 217.577,250.044 218,251.5C 220.848,250.567 221.014,249.067 218.5,247C 220.788,246.054 222.955,244.887 225,243.5C 226.558,244.345 227.558,243.679 228,241.5C 229.268,241.616 230.602,241.949 232,242.5C 233.419,241.54 234.919,240.707 236.5,240C 235.833,239.667 235.167,239.333 234.5,239C 235.833,238.333 235.833,237.667 234.5,237C 235,236.5 235.5,236 236,235.5C 236.639,238.228 237.806,238.728 239.5,237C 239.167,236.667 238.833,236.333 238.5,236C 239.308,235.692 239.975,235.192 240.5,234.5C 239.355,233.109 239.355,231.776 240.5,230.5C 241.429,231.689 241.762,233.022 241.5,234.5C 244.598,234.587 244.932,234.087 242.5,233C 243.949,231.883 245.616,231.216 247.5,231C 246.531,229.242 245.364,228.742 244,229.5C 243.16,226.536 242.16,226.203 241,228.5C 238.546,227.802 236.213,226.802 234,225.5C 232.092,227.907 230.092,227.907 228,225.5C 227.228,225.645 226.561,225.978 226,226.5C 225.727,224.671 224.893,223.171 223.5,222C 224.737,221.768 225.737,221.268 226.5,220.5C 230.5,220.5 234.5,220.5 238.5,220.5C 239.16,216.687 240.326,213.021 242,209.5C 245.79,202.255 249.29,194.922 252.5,187.5C 249.15,187.335 245.817,187.502 242.5,188C 241.145,191.212 239.645,194.378 238,197.5C 235.889,194.345 234.055,191.011 232.5,187.5C 233.695,187.678 234.862,188.011 236,188.5C 241.996,186.803 248.163,185.97 254.5,186C 255.126,185.25 255.626,184.416 256,183.5C 257.988,185.84 259.154,189.174 259.5,193.5C 260.822,193.33 261.989,193.663 263,194.5C 263.617,193.551 263.451,192.718 262.5,192C 263.5,191.333 264.5,191.333 265.5,192C 265.167,193 264.833,194 264.5,195C 266.896,195.866 267.563,195.366 266.5,193.5C 267.59,191.997 268.757,191.664 270,192.5C 270.684,191.216 270.517,190.049 269.5,189C 272.822,187.428 275.656,185.261 278,182.5C 279.667,183.833 281.333,185.167 283,186.5C 286.199,185.764 286.365,186.597 283.5,189C 286.38,189.848 288.88,191.348 291,193.5C 292.271,192.117 293.771,191.117 295.5,190.5 Z"/></g>
<g><path style="opacity:1" fill="#10121d" d="M 59.5,204.5 C 59.3573,206.262 59.6906,207.929 60.5,209.5C 58.187,210.273 55.8537,210.94 53.5,211.5C 52.8933,211.376 52.56,211.043 52.5,210.5C 53.1665,204.986 53.8332,199.319 54.5,193.5C 56.4383,197.043 58.1049,200.71 59.5,204.5 Z"/></g>
<g><path style="opacity:1" fill="#041733" d="M 46.5,183.5 C 45.9113,192.621 44.578,201.621 42.5,210.5C 45.8333,210.5 49.1667,210.5 52.5,210.5C 52.56,211.043 52.8933,211.376 53.5,211.5C 55.8537,210.94 58.187,210.273 60.5,209.5C 59.6906,207.929 59.3573,206.262 59.5,204.5C 60.5,206.5 61.5,208.5 62.5,210.5C 66.4755,210.013 70.4755,210.679 74.5,212.5C 76.8568,212.337 79.1902,212.503 81.5,213C 80.2341,213.309 79.0674,213.809 78,214.5C 77.5683,215.6 78.0683,216.267 79.5,216.5C 80.6473,216.182 81.4806,215.516 82,214.5C 84.0595,214.446 86.2261,214.613 88.5,215C 87.3044,214.346 87.3044,213.846 88.5,213.5C 89.2508,214.376 89.7508,215.376 90,216.5C 91.5874,215.273 92.9207,215.606 94,217.5C 93.7374,216.049 93.9041,214.716 94.5,213.5C 95.9833,215.623 96.8166,217.623 97,219.5C 98.6532,219.18 99.6532,218.18 100,216.5C 103.318,217.013 106.818,217.513 110.5,218C 111.849,217.228 112.682,216.061 113,214.5C 113.915,215.328 114.581,216.328 115,217.5C 115.893,216.289 116.726,216.289 117.5,217.5C 116.494,218.396 116.494,219.062 117.5,219.5C 118.386,218.675 118.719,217.675 118.5,216.5C 121.763,217.138 124.929,217.138 128,216.5C 128.333,217.167 128.667,217.833 129,218.5C 130.297,217.216 131.464,217.383 132.5,219C 131.692,219.308 131.025,219.808 130.5,220.5C 131.167,220.833 131.833,221.167 132.5,221.5C 130.468,222.968 130.635,224.635 133,226.5C 133.333,226.167 133.667,225.833 134,225.5C 135.872,232.137 134.706,232.804 130.5,227.5C 129.635,226.417 128.635,226.251 127.5,227C 128.167,228.333 129.167,229.333 130.5,230C 129.109,231.02 127.609,231.853 126,232.5C 125.577,231.044 124.744,230.544 123.5,231C 123.833,231.333 124.167,231.667 124.5,232C 123.333,232.5 122.5,233.333 122,234.5C 120.029,232.9 118.196,232.734 116.5,234C 118.481,234.605 118.815,235.605 117.5,237C 116.5,237.667 115.5,237.667 114.5,237C 115.15,235.391 114.65,233.891 113,232.5C 112.535,233.931 111.701,235.097 110.5,236C 111.285,238.443 111.119,240.943 110,243.5C 109.489,241.122 108.822,238.788 108,236.5C 107.517,237.448 107.351,238.448 107.5,239.5C 106.178,239.67 105.011,239.337 104,238.5C 103.5,239 103,239.5 102.5,240C 102.944,241.533 103.277,243.033 103.5,244.5C 102.579,246.815 101.246,246.982 99.5,245C 100.167,244.667 100.833,244.333 101.5,244C 100.809,242.933 100.309,241.766 100,240.5C 98.3333,242.833 96.6667,245.167 95,247.5C 94.7508,246.376 94.2508,245.376 93.5,244.5C 93.6465,245.976 92.8131,247.309 91,248.5C 90.0546,248.095 89.3879,247.428 89,246.5C 88.3333,247.833 88.3333,249.167 89,250.5C 90.813,249.391 91.6463,250.058 91.5,252.5C 93.3547,252.272 94.1881,252.939 94,254.5C 93.586,254.043 93.086,253.709 92.5,253.5C 91.7193,254.737 90.7193,255.737 89.5,256.5C 88.8076,255.975 88.3076,255.308 88,254.5C 87.2571,256.441 87.4238,258.274 88.5,260C 87,260.833 85.8333,262 85,263.5C 84.3333,259.5 83.6667,259.5 83,263.5C 81.7964,262.529 81.2964,261.529 81.5,260.5C 78.8854,260.856 77.0521,262.189 76,264.5C 73.7779,261.956 71.6112,261.956 69.5,264.5C 70.8114,265.258 71.3114,266.258 71,267.5C 70.3333,266.167 69.6667,266.167 69,267.5C 68.1667,266.5 67.3333,265.5 66.5,264.5C 65.7515,266.332 64.7515,267.999 63.5,269.5C 64.5901,271.003 65.7567,271.336 67,270.5C 67.6172,271.449 67.4506,272.282 66.5,273C 64.6748,272.155 62.8415,271.322 61,270.5C 59.395,271.101 58.0616,272.101 57,273.5C 55.9125,271.068 55.4125,271.402 55.5,274.5C 52.6424,274.595 50.3091,275.762 48.5,278C 51.5238,282.636 50.5238,283.969 45.5,282C 46.624,281.751 47.624,281.251 48.5,280.5C 48.3333,280.167 48.1667,279.833 48,279.5C 46.3264,280.065 44.4931,280.232 42.5,280C 43.2924,281.905 43.2924,284.071 42.5,286.5C 40.4083,283.848 37.7417,283.014 34.5,284C 34.9574,284.414 35.2907,284.914 35.5,285.5C 32.8677,286.257 30.3677,286.59 28,286.5C 27.6886,285.258 28.1886,284.258 29.5,283.5C 29.1667,283.167 28.8333,282.833 28.5,282.5C 25.8333,284.167 23.1667,285.833 20.5,287.5C 19.914,287.291 19.414,286.957 19,286.5C 17.0848,291.788 16.4181,291.788 17,286.5C 15.9542,288.09 14.7875,289.59 13.5,291C 15.3795,291.96 17.3795,292.46 19.5,292.5C 18.8333,292.833 18.1667,293.167 17.5,293.5C 18.2427,294.182 18.9094,294.849 19.5,295.5C 12.8333,295.5 6.16667,295.5 -0.5,295.5C -0.5,282.5 -0.5,269.5 -0.5,256.5C 1.01739,256.489 2.18405,255.823 3,254.5C 4.50711,258.68 6.00711,259.014 7.5,255.5C 8.19238,256.025 8.69238,256.692 9,257.5C 10.596,255.064 12.4293,254.564 14.5,256C 14.1667,256.333 13.8333,256.667 13.5,257C 15.0609,257.318 16.2276,258.151 17,259.5C 17.5431,257.369 18.3764,255.369 19.5,253.5C 20.2868,254.242 20.9535,255.075 21.5,256C 21.6563,257.67 20.9896,259.337 19.5,261C 19.6301,262.059 20.1301,262.892 21,263.5C 21.5611,261.275 22.5611,259.275 24,257.5C 25.5655,258.061 26.8989,257.394 28,255.5C 28.8893,256.888 29.3893,256.722 29.5,255C 28.7282,253.779 27.7282,252.779 26.5,252C 28.7032,251.376 30.7032,251.876 32.5,253.5C 32.8333,252.833 33.1667,252.167 33.5,251.5C 34.1924,252.025 34.6924,252.692 35,253.5C 35.4952,251.01 36.9952,249.51 39.5,249C 38.0439,248.577 37.5439,247.744 38,246.5C 40.0902,247.791 41.4236,247.124 42,244.5C 43.3402,245.868 44.6736,247.201 46,248.5C 46.5,248.333 47,248.167 47.5,248C 46.9491,246.602 46.6158,245.268 46.5,244C 47.5,243.667 48.5,243.333 49.5,243C 48.3044,242.346 48.3044,241.846 49.5,241.5C 50.5,241.833 51.1667,242.5 51.5,243.5C 50.6744,244.451 50.5078,245.451 51,246.5C 52.4095,245.213 53.9095,244.046 55.5,243C 51.81,242.576 51.6433,241.742 55,240.5C 55.8322,235.487 57.3322,235.32 59.5,240C 57.3303,241.43 57.1636,242.93 59,244.5C 60.6016,242.737 61.1016,240.904 60.5,239C 61.8333,238.667 63.1667,238.333 64.5,238C 63.8333,237.667 63.1667,237.333 62.5,237C 64.7481,234.328 67.2481,232.828 70,232.5C 70.6172,231.551 70.4506,230.718 69.5,230C 70.549,229.508 71.549,229.674 72.5,230.5C 73.8333,229.5 75.1667,228.5 76.5,227.5C 77.6446,226.109 77.6446,224.776 76.5,223.5C 75.8333,224.5 75.1667,225.5 74.5,226.5C 71.3761,224.906 68.8761,225.572 67,228.5C 66.3333,227.5 66.3333,226.5 67,225.5C 68.5095,224.91 70.0095,224.244 71.5,223.5C 71.1667,222.833 70.8333,222.167 70.5,221.5C 75.3165,220.722 75.4832,219.055 71,216.5C 66.3344,220.168 61.6677,220.168 57,216.5C 52.6107,217.344 48.2774,217.678 44,217.5C 42.3117,216.675 42.1451,215.675 43.5,214.5C 42.4688,213.3 41.6355,211.966 41,210.5C 40.7931,206.911 40.2931,203.411 39.5,200C 40.5937,198.22 41.5937,196.386 42.5,194.5C 43.086,194.709 43.586,195.043 44,195.5C 44.3349,191.264 45.1682,187.264 46.5,183.5 Z"/></g>
<g><path style="opacity:1" fill="#101625" d="M 114.5,175.5 C 115.668,187.161 115.668,198.828 114.5,210.5C 117.833,210.5 121.167,210.5 124.5,210.5C 123.24,199.17 123.24,187.837 124.5,176.5C 124.833,176.5 125.167,176.5 125.5,176.5C 126.152,179.968 127.485,183.135 129.5,186C 134.164,185.162 138.831,185.495 143.5,187C 142.906,187.464 142.239,187.631 141.5,187.5C 134.735,186.469 129.568,188.802 126,194.5C 123.422,204.671 127.255,210.337 137.5,211.5C 137.167,212.167 136.833,212.833 136.5,213.5C 136.631,214.239 136.464,214.906 136,215.5C 134.396,214.351 132.73,214.351 131,215.5C 130.05,214.978 129.216,214.311 128.5,213.5C 125.721,214.356 122.888,215.023 120,215.5C 114.56,212.93 109.06,211.596 103.5,211.5C 106.814,211.026 109.147,209.359 110.5,206.5C 110.132,204.825 109.132,203.825 107.5,203.5C 107.782,202.222 108.449,201.222 109.5,200.5C 111.267,195.818 109.934,191.984 105.5,189C 94.9227,184.785 88.5894,188.118 86.5,199C 87.6779,207.673 92.6779,211.84 101.5,211.5C 97.3179,212.739 92.9846,212.739 88.5,211.5C 87.3279,211.919 86.3279,212.585 85.5,213.5C 81.9189,211.323 78.2522,210.989 74.5,212.5C 70.4755,210.679 66.4755,210.013 62.5,210.5C 65.1363,205.227 67.8029,199.894 70.5,194.5C 71.4948,199.792 71.8282,205.125 71.5,210.5C 75.5,210.5 79.5,210.5 83.5,210.5C 83.5,209.167 83.5,207.833 83.5,206.5C 83.3275,187.477 91.9941,181.31 109.5,188C 110.025,187.308 110.692,186.808 111.5,186.5C 111.888,182.411 112.888,178.744 114.5,175.5 Z"/></g>
<g><path style="opacity:1" fill="#121622" d="M 105.5,203.5 C 103.874,203.938 102.207,204.272 100.5,204.5C 98.6455,204.66 97.3121,203.993 96.5,202.5C 97.7933,201.842 99.2933,201.508 101,201.5C 102.986,201.569 104.486,202.235 105.5,203.5 Z"/></g>
<g><path style="opacity:1" fill="#5d5c62" d="M 109.5,200.5 C 108.449,201.222 107.782,202.222 107.5,203.5C 106.833,203.5 106.167,203.5 105.5,203.5C 104.486,202.235 102.986,201.569 101,201.5C 99.2933,201.508 97.7933,201.842 96.5,202.5C 95.9569,202.44 95.6236,202.107 95.5,201.5C 100.12,200.507 104.786,200.173 109.5,200.5 Z"/></g>
<g><path style="opacity:1" fill="#f5f5f5" d="M 109.5,200.5 C 104.786,200.173 100.12,200.507 95.5,201.5C 95.6236,202.107 95.9569,202.44 96.5,202.5C 97.3121,203.993 98.6455,204.66 100.5,204.5C 102.207,204.272 103.874,203.938 105.5,203.5C 106.167,203.5 106.833,203.5 107.5,203.5C 109.132,203.825 110.132,204.825 110.5,206.5C 109.147,209.359 106.814,211.026 103.5,211.5C 102.833,211.5 102.167,211.5 101.5,211.5C 92.6779,211.84 87.6779,207.673 86.5,199C 88.5894,188.118 94.9227,184.785 105.5,189C 109.934,191.984 111.267,195.818 109.5,200.5 Z"/></g>
<g><path style="opacity:1" fill="#8d8d93" d="M 96.5,193.5 C 97.5521,195.256 99.2188,195.923 101.5,195.5C 99.7354,196.461 97.7354,196.795 95.5,196.5C 95.2627,195.209 95.596,194.209 96.5,193.5 Z"/></g>
<g><path style="opacity:1" fill="#181d36" d="M 96.5,193.5 C 98.7812,193.077 100.448,193.744 101.5,195.5C 99.2188,195.923 97.5521,195.256 96.5,193.5 Z"/></g>
<g><path style="opacity:1" fill="#03142e" d="M 74.5,212.5 C 78.2522,210.989 81.9189,211.323 85.5,213.5C 86.3279,212.585 87.3279,211.919 88.5,211.5C 92.9846,212.739 97.3179,212.739 101.5,211.5C 102.167,211.5 102.833,211.5 103.5,211.5C 109.06,211.596 114.56,212.93 120,215.5C 122.888,215.023 125.721,214.356 128.5,213.5C 129.216,214.311 130.05,214.978 131,215.5C 132.73,214.351 134.396,214.351 136,215.5C 136.464,214.906 136.631,214.239 136.5,213.5C 140.578,214.137 144.411,215.47 148,217.5C 148.787,216.289 149.454,215.289 150,214.5C 152.854,215.114 155.687,215.781 158.5,216.5C 159.425,215.359 160.259,215.359 161,216.5C 161.667,215.833 162.333,215.167 163,214.5C 164.054,216.754 165.554,217.087 167.5,215.5C 168.914,216.624 170.414,217.624 172,218.5C 172.869,215.237 174.203,214.904 176,217.5C 177.333,214.833 178.667,214.833 180,217.5C 181.067,216.809 182.234,216.309 183.5,216C 182.663,214.989 182.33,213.822 182.5,212.5C 184.655,212.372 186.655,212.872 188.5,214C 186.343,215.085 186.176,216.251 188,217.5C 191.105,216.937 194.105,216.937 197,217.5C 199.862,215.468 202.696,215.801 205.5,218.5C 205.023,219.478 204.357,220.311 203.5,221C 203.833,221.167 204.167,221.333 204.5,221.5C 205.826,220.01 207.326,218.676 209,217.5C 209.98,218.981 211.147,220.315 212.5,221.5C 213.739,219.993 213.405,218.826 211.5,218C 212.766,217.691 213.933,217.191 215,216.5C 216.515,218.677 218.015,220.844 219.5,223C 218.404,225.147 216.904,225.647 215,224.5C 215.984,226.598 215.651,228.598 214,230.5C 210.165,228.037 206.332,228.37 202.5,231.5C 201.459,229.009 200.626,229.009 200,231.5C 199.667,230.833 199.333,230.167 199,229.5C 197.428,233.852 195.761,234.185 194,230.5C 193.535,231.931 192.701,233.097 191.5,234C 188.383,235.973 185.216,237.807 182,239.5C 181.383,238.551 181.549,237.718 182.5,237C 180.104,236.134 179.437,236.634 180.5,238.5C 179.738,238.911 178.738,239.077 177.5,239C 178.711,239.893 178.711,240.726 177.5,241.5C 176.201,240.91 175.368,239.91 175,238.5C 173.691,240.891 172.691,240.891 172,238.5C 170.667,241.167 168.667,243.167 166,244.5C 165,243.167 164,243.167 163,244.5C 161.685,246.316 160.185,247.983 158.5,249.5C 159.326,250.451 159.492,251.451 159,252.5C 157.983,250.624 157.149,248.624 156.5,246.5C 155.269,247.651 155.269,248.817 156.5,250C 155.5,250.333 154.5,250.667 153.5,251C 153.833,251.333 154.167,251.667 154.5,252C 152.919,252.707 151.419,253.54 150,254.5C 149.667,254.167 149.333,253.833 149,253.5C 148.145,256.115 146.812,258.448 145,260.5C 144.692,259.692 144.192,259.025 143.5,258.5C 141.697,260.205 141.031,262.038 141.5,264C 139.665,264.928 139.332,266.094 140.5,267.5C 140,268.5 139.5,269.5 139,270.5C 138.71,268.956 138.044,267.623 137,266.5C 135.601,266.501 134.101,266.835 132.5,267.5C 131.201,266.91 130.368,265.91 130,264.5C 129.542,267.096 130.375,269.263 132.5,271C 131.692,271.308 131.025,271.808 130.5,272.5C 130.227,274.928 130.56,277.095 131.5,279C 131.167,279.167 130.833,279.333 130.5,279.5C 129.719,278.271 129.219,276.938 129,275.5C 128.667,276.167 128.333,276.833 128,277.5C 126.667,274.833 125.333,274.833 124,277.5C 123.085,276.672 122.419,275.672 122,274.5C 119.984,276.745 117.651,278.745 115,280.5C 113.667,279.833 112.667,278.833 112,277.5C 110.805,283.134 108.305,283.468 104.5,278.5C 101.632,280.752 98.6324,282.918 95.5,285C 97.6023,286.397 98.769,288.231 99,290.5C 97.2942,289.692 96.4609,288.359 96.5,286.5C 93.2155,286.269 90.7155,287.603 89,290.5C 88.6667,290.167 88.3333,289.833 88,289.5C 87.7811,290.938 87.2811,292.271 86.5,293.5C 84.3432,294.05 82.3432,294.717 80.5,295.5C 60.1667,295.5 39.8333,295.5 19.5,295.5C 18.9094,294.849 18.2427,294.182 17.5,293.5C 18.1667,293.167 18.8333,292.833 19.5,292.5C 17.3795,292.46 15.3795,291.96 13.5,291C 14.7875,289.59 15.9542,288.09 17,286.5C 16.4181,291.788 17.0848,291.788 19,286.5C 19.414,286.957 19.914,287.291 20.5,287.5C 23.1667,285.833 25.8333,284.167 28.5,282.5C 28.8333,282.833 29.1667,283.167 29.5,283.5C 28.1886,284.258 27.6886,285.258 28,286.5C 30.3677,286.59 32.8677,286.257 35.5,285.5C 35.2907,284.914 34.9574,284.414 34.5,284C 37.7417,283.014 40.4083,283.848 42.5,286.5C 43.2924,284.071 43.2924,281.905 42.5,280C 44.4931,280.232 46.3264,280.065 48,279.5C 48.1667,279.833 48.3333,280.167 48.5,280.5C 47.624,281.251 46.624,281.751 45.5,282C 50.5238,283.969 51.5238,282.636 48.5,278C 50.3091,275.762 52.6424,274.595 55.5,274.5C 55.4125,271.402 55.9125,271.068 57,273.5C 58.0616,272.101 59.395,271.101 61,270.5C 62.8415,271.322 64.6748,272.155 66.5,273C 67.4506,272.282 67.6172,271.449 67,270.5C 65.7567,271.336 64.5901,271.003 63.5,269.5C 64.7515,267.999 65.7515,266.332 66.5,264.5C 67.3333,265.5 68.1667,266.5 69,267.5C 69.6667,266.167 70.3333,266.167 71,267.5C 71.3114,266.258 70.8114,265.258 69.5,264.5C 71.6112,261.956 73.7779,261.956 76,264.5C 77.0521,262.189 78.8854,260.856 81.5,260.5C 81.2964,261.529 81.7964,262.529 83,263.5C 83.6667,259.5 84.3333,259.5 85,263.5C 85.8333,262 87,260.833 88.5,260C 87.4238,258.274 87.2571,256.441 88,254.5C 88.3076,255.308 88.8076,255.975 89.5,256.5C 90.7193,255.737 91.7193,254.737 92.5,253.5C 93.086,253.709 93.586,254.043 94,254.5C 94.1881,252.939 93.3547,252.272 91.5,252.5C 91.6463,250.058 90.813,249.391 89,250.5C 88.3333,249.167 88.3333,247.833 89,246.5C 89.3879,247.428 90.0546,248.095 91,248.5C 92.8131,247.309 93.6465,245.976 93.5,244.5C 94.2508,245.376 94.7508,246.376 95,247.5C 96.6667,245.167 98.3333,242.833 100,240.5C 100.309,241.766 100.809,242.933 101.5,244C 100.833,244.333 100.167,244.667 99.5,245C 101.246,246.982 102.579,246.815 103.5,244.5C 103.277,243.033 102.944,241.533 102.5,240C 103,239.5 103.5,239 104,238.5C 105.011,239.337 106.178,239.67 107.5,239.5C 107.351,238.448 107.517,237.448 108,236.5C 108.822,238.788 109.489,241.122 110,243.5C 111.119,240.943 111.285,238.443 110.5,236C 111.701,235.097 112.535,233.931 113,232.5C 114.65,233.891 115.15,235.391 114.5,237C 115.5,237.667 116.5,237.667 117.5,237C 118.815,235.605 118.481,234.605 116.5,234C 118.196,232.734 120.029,232.9 122,234.5C 122.5,233.333 123.333,232.5 124.5,232C 124.167,231.667 123.833,231.333 123.5,231C 124.744,230.544 125.577,231.044 126,232.5C 127.609,231.853 129.109,231.02 130.5,230C 129.167,229.333 128.167,228.333 127.5,227C 128.635,226.251 129.635,226.417 130.5,227.5C 134.706,232.804 135.872,232.137 134,225.5C 133.667,225.833 133.333,226.167 133,226.5C 130.635,224.635 130.468,222.968 132.5,221.5C 131.833,221.167 131.167,220.833 130.5,220.5C 131.025,219.808 131.692,219.308 132.5,219C 131.464,217.383 130.297,217.216 129,218.5C 128.667,217.833 128.333,217.167 128,216.5C 124.929,217.138 121.763,217.138 118.5,216.5C 118.719,217.675 118.386,218.675 117.5,219.5C 116.494,219.062 116.494,218.396 117.5,217.5C 116.726,216.289 115.893,216.289 115,217.5C 114.581,216.328 113.915,215.328 113,214.5C 112.682,216.061 111.849,217.228 110.5,218C 106.818,217.513 103.318,217.013 100,216.5C 99.6532,218.18 98.6532,219.18 97,219.5C 96.8166,217.623 95.9833,215.623 94.5,213.5C 93.9041,214.716 93.7374,216.049 94,217.5C 92.9207,215.606 91.5874,215.273 90,216.5C 89.7508,215.376 89.2508,214.376 88.5,213.5C 87.3044,213.846 87.3044,214.346 88.5,215C 86.2261,214.613 84.0595,214.446 82,214.5C 81.4806,215.516 80.6473,216.182 79.5,216.5C 78.0683,216.267 77.5683,215.6 78,214.5C 79.0674,213.809 80.2341,213.309 81.5,213C 79.1902,212.503 76.8568,212.337 74.5,212.5 Z"/></g>
<g><path style="opacity:1" fill="#031937" d="M 46.5,183.5 C 45.1682,187.264 44.3349,191.264 44,195.5C 43.586,195.043 43.086,194.709 42.5,194.5C 41.5937,196.386 40.5937,198.22 39.5,200C 40.2931,203.411 40.7931,206.911 41,210.5C 41.6355,211.966 42.4688,213.3 43.5,214.5C 42.1451,215.675 42.3117,216.675 44,217.5C 48.2774,217.678 52.6107,217.344 57,216.5C 61.6677,220.168 66.3344,220.168 71,216.5C 75.4832,219.055 75.3165,220.722 70.5,221.5C 70.8333,222.167 71.1667,222.833 71.5,223.5C 70.0095,224.244 68.5095,224.91 67,225.5C 66.3333,226.5 66.3333,227.5 67,228.5C 68.8761,225.572 71.3761,224.906 74.5,226.5C 75.1667,225.5 75.8333,224.5 76.5,223.5C 77.6446,224.776 77.6446,226.109 76.5,227.5C 75.1667,228.5 73.8333,229.5 72.5,230.5C 71.549,229.674 70.549,229.508 69.5,230C 70.4506,230.718 70.6172,231.551 70,232.5C 67.2481,232.828 64.7481,234.328 62.5,237C 63.1667,237.333 63.8333,237.667 64.5,238C 63.1667,238.333 61.8333,238.667 60.5,239C 61.1016,240.904 60.6016,242.737 59,244.5C 57.1636,242.93 57.3303,241.43 59.5,240C 57.3322,235.32 55.8322,235.487 55,240.5C 51.6433,241.742 51.81,242.576 55.5,243C 53.9095,244.046 52.4095,245.213 51,246.5C 50.5078,245.451 50.6744,244.451 51.5,243.5C 51.1667,242.5 50.5,241.833 49.5,241.5C 48.3044,241.846 48.3044,242.346 49.5,243C 48.5,243.333 47.5,243.667 46.5,244C 46.6158,245.268 46.9491,246.602 47.5,248C 47,248.167 46.5,248.333 46,248.5C 44.6736,247.201 43.3402,245.868 42,244.5C 41.4236,247.124 40.0902,247.791 38,246.5C 37.5439,247.744 38.0439,248.577 39.5,249C 36.9952,249.51 35.4952,251.01 35,253.5C 34.6924,252.692 34.1924,252.025 33.5,251.5C 33.1667,252.167 32.8333,252.833 32.5,253.5C 30.7032,251.876 28.7032,251.376 26.5,252C 27.7282,252.779 28.7282,253.779 29.5,255C 29.3893,256.722 28.8893,256.888 28,255.5C 26.8989,257.394 25.5655,258.061 24,257.5C 22.5611,259.275 21.5611,261.275 21,263.5C 20.1301,262.892 19.6301,262.059 19.5,261C 20.9896,259.337 21.6563,257.67 21.5,256C 20.9535,255.075 20.2868,254.242 19.5,253.5C 18.3764,255.369 17.5431,257.369 17,259.5C 16.2276,258.151 15.0609,257.318 13.5,257C 13.8333,256.667 14.1667,256.333 14.5,256C 12.4293,254.564 10.596,255.064 9,257.5C 8.69238,256.692 8.19238,256.025 7.5,255.5C 6.00711,259.014 4.50711,258.68 3,254.5C 2.18405,255.823 1.01739,256.489 -0.5,256.5C -0.5,244.833 -0.5,233.167 -0.5,221.5C 1.90315,221.607 3.73649,220.607 5,218.5C 5,219.833 5,221.167 5,222.5C 7.35372,221.264 9.35372,219.597 11,217.5C 12.3876,218.554 13.8876,218.72 15.5,218C 14.7471,216.513 13.9138,216.346 13,217.5C 11.4202,216.574 10.9202,215.574 11.5,214.5C 13.3707,215.767 15.2041,215.767 17,214.5C 17.3333,215.5 17.6667,216.5 18,217.5C 19.6667,216.5 21,215.167 22,213.5C 22.6667,214.167 23.3333,214.833 24,215.5C 25.7866,214.657 27.6199,214.49 29.5,215C 32.4785,213.152 32.8118,211.152 30.5,209C 31.9506,209.263 33.2839,209.096 34.5,208.5C 33.6518,206.591 33.3184,204.591 33.5,202.5C 34.552,202.649 35.552,202.483 36.5,202C 34.5696,199.39 35.2363,197.057 38.5,195C 37.8333,194.667 37.1667,194.333 36.5,194C 38.6785,193.558 39.3452,192.558 38.5,191C 39.8333,190.333 40.8333,189.333 41.5,188C 40.8617,186.293 40.8617,184.46 41.5,182.5C 42.5,182.5 43.5,182.5 44.5,182.5C 44.281,181.325 44.6143,180.325 45.5,179.5C 46.4287,180.689 46.762,182.022 46.5,183.5 Z"/></g>
<g><path style="opacity:1" fill="#021128" d="M 223.5,179.5 C 223.643,181.262 223.309,182.929 222.5,184.5C 224.484,185.706 226.484,185.706 228.5,184.5C 230.213,184.879 231.213,185.879 231.5,187.5C 228.5,187.5 225.5,187.5 222.5,187.5C 222.351,188.552 222.517,189.552 223,190.5C 227.349,195.504 230.849,201.004 233.5,207C 231.778,211.869 229.445,216.369 226.5,220.5C 225.737,221.268 224.737,221.768 223.5,222C 224.893,223.171 225.727,224.671 226,226.5C 226.561,225.978 227.228,225.645 228,225.5C 230.092,227.907 232.092,227.907 234,225.5C 236.213,226.802 238.546,227.802 241,228.5C 242.16,226.203 243.16,226.536 244,229.5C 245.364,228.742 246.531,229.242 247.5,231C 245.616,231.216 243.949,231.883 242.5,233C 244.932,234.087 244.598,234.587 241.5,234.5C 241.762,233.022 241.429,231.689 240.5,230.5C 239.355,231.776 239.355,233.109 240.5,234.5C 239.975,235.192 239.308,235.692 238.5,236C 238.833,236.333 239.167,236.667 239.5,237C 237.806,238.728 236.639,238.228 236,235.5C 235.5,236 235,236.5 234.5,237C 235.833,237.667 235.833,238.333 234.5,239C 235.167,239.333 235.833,239.667 236.5,240C 234.919,240.707 233.419,241.54 232,242.5C 230.602,241.949 229.268,241.616 228,241.5C 227.558,243.679 226.558,244.345 225,243.5C 222.955,244.887 220.788,246.054 218.5,247C 221.014,249.067 220.848,250.567 218,251.5C 217.577,250.044 216.744,249.544 215.5,250C 215.957,250.414 216.291,250.914 216.5,251.5C 215.11,253.203 213.61,253.87 212,253.5C 211.529,255.246 210.862,256.913 210,258.5C 209.085,257.672 208.419,256.672 208,255.5C 207.667,256.167 207.333,256.833 207,257.5C 206.213,256.289 205.546,255.289 205,254.5C 202.966,255.944 202.132,257.944 202.5,260.5C 199.951,260.387 197.618,261.054 195.5,262.5C 194.808,261.975 194.308,261.308 194,260.5C 192.04,264.446 190.04,264.446 188,260.5C 188.003,262.856 188.503,265.189 189.5,267.5C 188.863,269.303 187.697,270.636 186,271.5C 184.89,269.963 183.39,269.297 181.5,269.5C 181.5,270.5 181.5,271.5 181.5,272.5C 177.856,272.708 175.689,274.708 175,278.5C 173.992,278.982 172.825,279.148 171.5,279C 170.789,280.255 169.956,281.421 169,282.5C 168.225,280.777 166.892,279.777 165,279.5C 163.909,281.346 162.576,282.013 161,281.5C 160.196,280.196 159.029,279.529 157.5,279.5C 154.66,280.569 154.326,281.736 156.5,283C 155.216,283.684 154.049,283.517 153,282.5C 151.649,284.019 150.149,285.352 148.5,286.5C 147.914,286.291 147.414,285.957 147,285.5C 144.595,286.274 142.095,286.774 139.5,287C 138.671,288.816 137.837,290.649 137,292.5C 135.042,292.209 133.542,293.209 132.5,295.5C 115.167,295.5 97.8333,295.5 80.5,295.5C 82.3432,294.717 84.3432,294.05 86.5,293.5C 87.2811,292.271 87.7811,290.938 88,289.5C 88.3333,289.833 88.6667,290.167 89,290.5C 90.7155,287.603 93.2155,286.269 96.5,286.5C 96.4609,288.359 97.2942,289.692 99,290.5C 98.769,288.231 97.6023,286.397 95.5,285C 98.6324,282.918 101.632,280.752 104.5,278.5C 108.305,283.468 110.805,283.134 112,277.5C 112.667,278.833 113.667,279.833 115,280.5C 117.651,278.745 119.984,276.745 122,274.5C 122.419,275.672 123.085,276.672 124,277.5C 125.333,274.833 126.667,274.833 128,277.5C 128.333,276.833 128.667,276.167 129,275.5C 129.219,276.938 129.719,278.271 130.5,279.5C 130.833,279.333 131.167,279.167 131.5,279C 130.56,277.095 130.227,274.928 130.5,272.5C 131.025,271.808 131.692,271.308 132.5,271C 130.375,269.263 129.542,267.096 130,264.5C 130.368,265.91 131.201,266.91 132.5,267.5C 134.101,266.835 135.601,266.501 137,266.5C 138.044,267.623 138.71,268.956 139,270.5C 139.5,269.5 140,268.5 140.5,267.5C 139.332,266.094 139.665,264.928 141.5,264C 141.031,262.038 141.697,260.205 143.5,258.5C 144.192,259.025 144.692,259.692 145,260.5C 146.812,258.448 148.145,256.115 149,253.5C 149.333,253.833 149.667,254.167 150,254.5C 151.419,253.54 152.919,252.707 154.5,252C 154.167,251.667 153.833,251.333 153.5,251C 154.5,250.667 155.5,250.333 156.5,250C 155.269,248.817 155.269,247.651 156.5,246.5C 157.149,248.624 157.983,250.624 159,252.5C 159.492,251.451 159.326,250.451 158.5,249.5C 160.185,247.983 161.685,246.316 163,244.5C 164,243.167 165,243.167 166,244.5C 168.667,243.167 170.667,241.167 172,238.5C 172.691,240.891 173.691,240.891 175,238.5C 175.368,239.91 176.201,240.91 177.5,241.5C 178.711,240.726 178.711,239.893 177.5,239C 178.738,239.077 179.738,238.911 180.5,238.5C 179.437,236.634 180.104,236.134 182.5,237C 181.549,237.718 181.383,238.551 182,239.5C 185.216,237.807 188.383,235.973 191.5,234C 192.701,233.097 193.535,231.931 194,230.5C 195.761,234.185 197.428,233.852 199,229.5C 199.333,230.167 199.667,230.833 200,231.5C 200.626,229.009 201.459,229.009 202.5,231.5C 206.332,228.37 210.165,228.037 214,230.5C 215.651,228.598 215.984,226.598 215,224.5C 216.904,225.647 218.404,225.147 219.5,223C 218.015,220.844 216.515,218.677 215,216.5C 213.933,217.191 212.766,217.691 211.5,218C 213.405,218.826 213.739,219.993 212.5,221.5C 211.147,220.315 209.98,218.981 209,217.5C 207.326,218.676 205.826,220.01 204.5,221.5C 204.167,221.333 203.833,221.167 203.5,221C 204.357,220.311 205.023,219.478 205.5,218.5C 202.696,215.801 199.862,215.468 197,217.5C 194.105,216.937 191.105,216.937 188,217.5C 186.176,216.251 186.343,215.085 188.5,214C 186.655,212.872 184.655,212.372 182.5,212.5C 182.33,213.822 182.663,214.989 183.5,216C 182.234,216.309 181.067,216.809 180,217.5C 178.667,214.833 177.333,214.833 176,217.5C 174.203,214.904 172.869,215.237 172,218.5C 170.414,217.624 168.914,216.624 167.5,215.5C 165.554,217.087 164.054,216.754 163,214.5C 162.333,215.167 161.667,215.833 161,216.5C 160.259,215.359 159.425,215.359 158.5,216.5C 155.687,215.781 152.854,215.114 150,214.5C 149.454,215.289 148.787,216.289 148,217.5C 144.411,215.47 140.578,214.137 136.5,213.5C 136.833,212.833 137.167,212.167 137.5,211.5C 142.743,211.377 147.076,209.377 150.5,205.5C 150.513,208.361 151.679,209.361 154,208.5C 155.419,209.46 156.919,210.293 158.5,211C 162.555,211.232 166.555,211.732 170.5,212.5C 179.78,211.527 189.113,211.193 198.5,211.5C 200.427,203.663 203.427,202.996 207.5,209.5C 210.625,210.479 213.958,210.813 217.5,210.5C 216.444,205.219 215.777,199.886 215.5,194.5C 217.833,194.5 220.167,194.5 222.5,194.5C 221.908,191.873 221.575,189.206 221.5,186.5C 219.5,186.5 217.5,186.5 215.5,186.5C 215.297,184.61 215.963,183.11 217.5,182C 219.845,181.764 221.845,180.93 223.5,179.5 Z"/></g>
<g><path style="opacity:1" fill="#010c1d" d="M 295.5,252.5 C 295.5,266.833 295.5,281.167 295.5,295.5C 271.5,295.5 247.5,295.5 223.5,295.5C 225.076,294.717 226.409,293.55 227.5,292C 227.576,288.999 226.409,288.833 224,291.5C 223.833,291.167 223.667,290.833 223.5,290.5C 225.837,287.065 229.17,285.732 233.5,286.5C 233.5,285.5 233.5,284.5 233.5,283.5C 235.677,283.414 237.677,282.747 239.5,281.5C 240.748,282.04 241.915,282.707 243,283.5C 243.667,280.833 244.333,280.833 245,283.5C 245.219,282.062 245.719,280.729 246.5,279.5C 247.696,279.846 247.696,280.346 246.5,281C 250.858,280.556 254.358,278.389 257,274.5C 258.016,275.634 258.683,275.301 259,273.5C 259.718,274.451 260.551,274.617 261.5,274C 260.167,273.333 260.167,272.667 261.5,272C 262.744,271.544 263.577,272.044 264,273.5C 265.167,272.333 266.333,271.167 267.5,270C 266.332,268.129 266.832,266.629 269,265.5C 271.253,265.946 273.753,266.112 276.5,266C 274.398,264.27 274.565,262.437 277,260.5C 277.333,261.167 277.667,261.833 278,262.5C 280.248,260.184 282.581,257.85 285,255.5C 286.505,257.298 286.672,259.132 285.5,261C 288.612,261.851 288.946,263.017 286.5,264.5C 288.325,265.571 289.492,264.904 290,262.5C 290.308,263.308 290.808,263.975 291.5,264.5C 292.852,260.392 294.185,256.392 295.5,252.5 Z"/></g>
</svg>
